<svg width="382" height="382" viewBox="0 0 382 382" fill="none" xmlns="http://www.w3.org/2000/svg">
<g clip-path="url(#clip0_90_577)">
<path d="M328.808 98.9008C327.681 97.0019 326.492 95.1268 325.242 93.2755C308.753 68.8233 280.269 52.0898 252.284 44.5277C240.005 41.2661 227.391 39.4287 214.692 39.052C131.52 36.2393 98.4003 101.713 70.9072 118.575C43.414 135.437 1.13663 164.282 3.9537 224.808C6.77076 285.333 50.4745 342.298 135.051 345.858C219.627 349.418 225.261 311.38 272.488 297.303C303.732 287.989 325.977 256.53 336.81 227.456C351.63 187.844 350.931 136.384 328.808 98.9008Z" fill="#368DD1"/>
<path opacity="0.7" d="M327.36 100.131C326.239 98.2412 325.055 96.3754 323.81 94.5332C307.395 70.2027 279.037 53.5525 251.177 46.028C238.953 42.7826 226.396 40.9544 213.752 40.5795C130.952 37.7809 97.9791 102.929 70.6084 119.707C43.2377 136.485 1.14858 165.187 3.9531 225.411C6.75762 285.635 50.2667 342.317 134.466 345.859C218.666 349.402 224.275 311.553 271.291 297.545C302.397 288.278 324.542 256.975 335.327 228.047C350.081 188.632 349.385 137.427 327.36 100.131Z" fill="white"/>
<path d="M336.901 306.983H346.52" stroke="#263238" stroke-linecap="round" stroke-linejoin="round"/>
<path d="M23.5999 306.983H331.568" stroke="#263238" stroke-linecap="round" stroke-linejoin="round"/>
<path d="M151.394 130.644H63.4807V193.292H151.394V130.644Z" fill="#368DD1" stroke="#263238" stroke-linecap="round" stroke-linejoin="round"/>
<path d="M137.581 138.953H77.3015V184.98H137.581V138.953Z" fill="white" stroke="#263238" stroke-linecap="round" stroke-linejoin="round"/>
<path d="M100.397 156.383L97.0586 157.729" stroke="#263238" stroke-linecap="round" stroke-linejoin="round"/>
<path d="M131.836 143.711L102.949 155.351" stroke="#263238" stroke-linecap="round" stroke-linejoin="round"/>
<path d="M131.446 147.037L123.585 150.205" stroke="#263238" stroke-linecap="round" stroke-linejoin="round"/>
<path d="M87.4475 178.125L100.222 172.979" stroke="#263238" stroke-linecap="round" stroke-linejoin="round"/>
<path d="M78.2261 136.563V137.693" stroke="#263238" stroke-linecap="round" stroke-linejoin="round"/>
<path d="M78.2261 131.075V135.738" stroke="#263238" stroke-linecap="round" stroke-linejoin="round"/>
<path d="M65.9177 139.119H74.4974" stroke="#263238" stroke-linecap="round" stroke-linejoin="round"/>
<path d="M64.6113 131.377L76.3616 137.992" stroke="#263238" stroke-linecap="round" stroke-linejoin="round"/>
<path d="M73.1377 133.262L65.1692 137.693" stroke="#263238" stroke-linecap="round" stroke-linejoin="round"/>
<path d="M75.9873 131.679L74.3218 132.603" stroke="#263238" stroke-linecap="round" stroke-linejoin="round"/>
<path d="M137.344 136.563V137.693" stroke="#263238" stroke-linecap="round" stroke-linejoin="round"/>
<path d="M137.344 131.075V135.738" stroke="#263238" stroke-linecap="round" stroke-linejoin="round"/>
<path d="M149.66 139.119H141.08" stroke="#263238" stroke-linecap="round" stroke-linejoin="round"/>
<path d="M150.966 131.377L139.216 137.992" stroke="#263238" stroke-linecap="round" stroke-linejoin="round"/>
<path d="M142.432 133.262L150.401 137.693" stroke="#263238" stroke-linecap="round" stroke-linejoin="round"/>
<path d="M139.583 131.679L141.256 132.603" stroke="#263238" stroke-linecap="round" stroke-linejoin="round"/>
<path d="M78.2261 187.773V186.671" stroke="#263238" stroke-linecap="round" stroke-linejoin="round"/>
<path d="M78.2261 193.126V188.577" stroke="#263238" stroke-linecap="round" stroke-linejoin="round"/>
<path d="M65.9177 185.279H74.4974" stroke="#263238" stroke-linecap="round" stroke-linejoin="round"/>
<path d="M64.6113 192.83L76.3616 186.378" stroke="#263238" stroke-linecap="round" stroke-linejoin="round"/>
<path d="M73.1377 190.991L65.1692 186.671" stroke="#263238" stroke-linecap="round" stroke-linejoin="round"/>
<path d="M75.9873 192.537L74.3218 191.635" stroke="#263238" stroke-linecap="round" stroke-linejoin="round"/>
<path d="M137.344 187.773V186.671" stroke="#263238" stroke-linecap="round" stroke-linejoin="round"/>
<path d="M137.344 193.126V188.577" stroke="#263238" stroke-linecap="round" stroke-linejoin="round"/>
<path d="M149.66 185.279H141.08" stroke="#263238" stroke-linecap="round" stroke-linejoin="round"/>
<path d="M150.966 192.83L139.216 186.378" stroke="#263238" stroke-linecap="round" stroke-linejoin="round"/>
<path d="M142.432 190.991L150.401 186.671" stroke="#263238" stroke-linecap="round" stroke-linejoin="round"/>
<path d="M139.583 192.537L141.256 191.635" stroke="#263238" stroke-linecap="round" stroke-linejoin="round"/>
<path d="M85.3159 193.261L77.5308 206.517H84.2692L87.2106 197.677L85.3159 193.261Z" fill="#263238"/>
<path d="M113.653 207.151H86.2863L81.4043 174.528H108.763L113.653 207.151Z" fill="#263238"/>
<path d="M109.229 203.193H89.5178L85.8201 178.486H105.531L109.229 203.193Z" fill="white" stroke="#263238" stroke-linecap="round" stroke-linejoin="round"/>
<path d="M153.342 274.085H62.4875V279.112H153.342V274.085Z" fill="#BDBDBD" stroke="#263238" stroke-linecap="round" stroke-linejoin="round"/>
<path d="M57.3001 313.5C57.2543 312.965 56.1465 300.344 56.5819 294.682C57.0174 289.021 57.705 284.903 58.3239 281.213C58.7593 278.608 59.1719 276.14 59.4622 273.405C60.4784 263.71 59.4622 259.928 58.3086 255.55C57.8502 253.839 57.3765 252.067 56.9792 249.859C55.4512 241.653 56.5361 228.772 56.5819 228.23L62.6939 228.734C62.6939 228.864 61.6702 241.355 63.0148 248.766C63.3739 250.73 63.7788 252.38 64.2372 253.977C65.5055 258.729 66.6973 263.221 65.5589 274.047C65.2533 276.965 64.795 279.517 64.3748 282.222C63.7483 285.958 63.1065 289.816 62.6939 295.148C62.2967 300.313 63.3968 312.835 63.4121 312.957L57.3001 313.5Z" fill="#BDBDBD" stroke="#263238" stroke-linecap="round" stroke-linejoin="round"/>
<path d="M158.515 313.5C158.561 312.965 159.676 300.344 159.279 294.682C158.881 289.021 158.148 284.903 157.529 281.213C157.094 278.608 156.681 276.14 156.398 273.405C155.375 263.71 156.398 259.928 157.544 255.55C158.003 253.839 158.477 252.067 158.874 249.859C160.402 241.653 159.317 228.772 159.271 228.23L153.159 228.734C153.159 228.864 154.183 241.355 152.838 248.766C152.479 250.73 152.074 252.38 151.616 253.977C150.348 258.729 149.156 263.221 150.294 274.047C150.6 276.965 151.058 279.517 151.478 282.222C152.105 285.958 152.747 289.816 153.159 295.148C153.556 300.313 152.456 312.835 152.441 312.957L158.515 313.5Z" fill="#BDBDBD" stroke="#263238" stroke-linecap="round" stroke-linejoin="round"/>
<path d="M159.676 210.948H56.4214V231.989H62.1667C65.8721 232.287 85.4687 234.93 92.0467 236.313C98.6248 237.696 103.942 237.367 107.411 234.334C110.833 237.39 116.036 237.711 122.561 236.313C129.085 234.915 148.354 232.256 152.036 231.989H159.676V210.948Z" fill="#BDBDBD" stroke="#263238" stroke-linecap="round" stroke-linejoin="round"/>
<path d="M111.124 222.973C111.124 222.234 110.904 221.512 110.494 220.897C110.083 220.282 109.499 219.804 108.816 219.521C108.133 219.239 107.381 219.165 106.656 219.31C105.931 219.455 105.266 219.811 104.743 220.334C104.221 220.858 103.866 221.524 103.723 222.249C103.579 222.974 103.655 223.726 103.938 224.408C104.222 225.091 104.702 225.674 105.318 226.083C105.933 226.493 106.656 226.711 107.395 226.709C107.886 226.709 108.371 226.613 108.824 226.425C109.277 226.237 109.688 225.962 110.034 225.615C110.381 225.268 110.655 224.856 110.842 224.403C111.029 223.949 111.125 223.464 111.124 222.973Z" fill="white" stroke="#263238" stroke-linecap="round" stroke-linejoin="round"/>
<path d="M159.645 210.948H56.4214V215.845H159.645V210.948Z" fill="#263238" stroke="#263238" stroke-linecap="round" stroke-linejoin="round"/>
<path d="M163.167 207.029H51.7075V212.919H163.167V207.029Z" fill="#BDBDBD" stroke="#263238" stroke-linecap="round" stroke-linejoin="round"/>
<path d="M321.4 202.414C321.408 202.393 321.407 202.369 321.399 202.348C321.39 202.327 321.374 202.31 321.354 202.3C321.333 202.292 321.311 202.292 321.291 202.301C321.271 202.31 321.255 202.325 321.247 202.345C318.772 208.277 316.816 214.412 315.402 220.681C313.972 226.944 312.895 233.283 312.178 239.667L311.712 244.48C311.643 245.282 311.552 246.084 311.498 246.887L311.368 249.293C311.299 250.898 311.2 252.502 311.154 254.114L311.2 258.935L311.254 261.341C311.254 262.144 311.345 262.946 311.399 263.748C311.521 265.352 311.62 266.957 311.766 268.554C312.071 271.755 312.53 274.933 313.049 278.104C313.053 278.123 313.063 278.141 313.078 278.153C313.094 278.166 313.113 278.173 313.133 278.172C313.145 278.176 313.158 278.177 313.17 278.174C313.183 278.172 313.195 278.167 313.205 278.16C313.215 278.153 313.224 278.143 313.23 278.132C313.236 278.121 313.239 278.109 313.24 278.096C313.24 276.492 313.164 274.895 313.125 273.29C313.087 271.686 312.942 270.105 312.965 268.5C312.988 266.896 312.927 265.307 312.912 263.718L312.866 261.326L312.912 258.935V254.152L313.041 249.377L313.095 246.986C313.095 246.222 313.187 245.397 313.225 244.602L313.523 239.827C314.065 233.468 314.968 227.145 316.227 220.888C317.411 214.591 319.142 208.41 321.4 202.414Z" fill="#263238"/>
<path d="M322.079 227.405C322.083 227.395 322.084 227.384 322.083 227.373C322.083 227.363 322.08 227.353 322.075 227.343C322.07 227.334 322.063 227.326 322.054 227.319C322.046 227.313 322.036 227.308 322.026 227.305C322.006 227.299 321.984 227.301 321.964 227.309C321.945 227.317 321.929 227.332 321.919 227.351C319.19 235.325 317.376 243.584 316.51 251.967C316.09 256.146 315.616 260.333 315.563 264.543C315.454 268.752 315.602 272.965 316.006 277.156C316.009 277.175 316.018 277.191 316.032 277.204C316.046 277.216 316.063 277.224 316.082 277.225C316.093 277.227 316.104 277.227 316.114 277.225C316.125 277.222 316.135 277.218 316.143 277.211C316.152 277.205 316.159 277.197 316.164 277.187C316.17 277.178 316.173 277.167 316.174 277.156C316.663 272.97 316.938 268.79 317.251 264.611C317.564 260.432 317.587 256.253 317.855 252.082C318.442 243.736 319.858 235.47 322.079 227.405Z" fill="#263238"/>
<path d="M335.938 236.198C335.931 236.19 335.922 236.184 335.913 236.179C335.903 236.175 335.892 236.172 335.881 236.172C335.87 236.172 335.86 236.175 335.85 236.179C335.84 236.184 335.831 236.19 335.824 236.198C332.357 238.424 329.235 241.144 326.557 244.274C325.21 245.847 323.999 247.532 322.935 249.308L322.171 250.714L321.644 252.12C321.446 252.603 321.278 253.098 321.14 253.602C320.987 254.099 320.819 254.595 320.689 255.092C319.623 259.088 318.981 263.185 318.771 267.316C318.565 271.424 318.718 275.543 319.23 279.624C319.234 279.643 319.243 279.66 319.257 279.674C319.27 279.687 319.287 279.696 319.306 279.7C319.32 279.693 319.332 279.682 319.34 279.669C319.348 279.655 319.352 279.64 319.352 279.624L320.406 267.446C320.691 263.415 321.201 259.402 321.934 255.428C322.049 254.939 322.186 254.458 322.309 253.977C322.426 253.491 322.569 253.011 322.737 252.54L323.233 251.127L323.867 249.797C324.832 248.029 325.944 246.345 327.191 244.763C329.665 241.534 332.593 238.68 335.885 236.29C335.903 236.283 335.918 236.27 335.928 236.254C335.938 236.237 335.941 236.217 335.938 236.198Z" fill="#263238"/>
<path d="M329.231 251.853C327.432 253.169 325.986 254.909 325.021 256.918C324.005 258.891 323.213 260.972 322.66 263.122C322.492 263.656 322.362 264.191 322.248 264.734L321.866 266.353C321.66 267.439 321.522 268.536 321.453 269.639C321.453 270.746 321.407 271.854 321.453 272.954C321.534 274.059 321.679 275.159 321.888 276.247C321.892 276.263 321.9 276.278 321.913 276.289C321.925 276.3 321.941 276.307 321.957 276.308C321.968 276.312 321.979 276.313 321.99 276.312C322.001 276.31 322.012 276.307 322.021 276.301C322.031 276.295 322.039 276.287 322.045 276.278C322.051 276.269 322.055 276.258 322.057 276.247C322.311 275.179 322.505 274.098 322.637 273.008C322.813 271.931 322.981 270.869 323.103 269.799C323.225 268.729 323.401 267.675 323.485 266.605C323.569 265.536 323.714 264.474 323.944 263.427C324.319 261.33 324.924 259.28 325.747 257.315C326.495 255.3 327.706 253.489 329.284 252.028C329.297 252.012 329.304 251.992 329.304 251.971C329.304 251.95 329.297 251.93 329.284 251.914C329.281 251.9 329.274 251.887 329.265 251.876C329.256 251.866 329.244 251.857 329.231 251.853Z" fill="#263238"/>
<path d="M309.802 264.061C309.344 258.652 308.45 253.297 307.609 247.941C306.769 242.585 305.829 237.245 304.851 231.897C303.873 226.549 302.781 221.262 301.627 215.968C301.625 215.957 301.621 215.948 301.616 215.939C301.61 215.931 301.603 215.923 301.594 215.917C301.586 215.912 301.576 215.908 301.566 215.906C301.556 215.904 301.546 215.904 301.535 215.906C301.524 215.908 301.514 215.912 301.504 215.918C301.495 215.924 301.486 215.932 301.48 215.941C301.474 215.951 301.469 215.961 301.467 215.972C301.465 215.983 301.465 215.995 301.467 216.006C302.394 221.338 303.244 226.686 304.018 232.05C304.828 237.398 305.592 242.746 306.272 248.094C306.952 253.442 307.449 258.843 308.121 264.199L310.1 280.296C310.102 280.317 310.111 280.337 310.127 280.351C310.143 280.365 310.163 280.373 310.184 280.373C310.195 280.374 310.205 280.373 310.216 280.369C310.226 280.366 310.235 280.36 310.243 280.353C310.251 280.346 310.257 280.337 310.262 280.327C310.266 280.318 310.268 280.307 310.268 280.296C310.329 278.936 310.329 277.576 310.367 276.217C310.405 274.857 310.314 273.504 310.283 272.144C310.237 269.47 310.001 266.766 309.802 264.061Z" fill="#263238"/>
<path d="M306.555 263.977C306.265 261.838 305.875 259.707 305.462 257.583L304.698 254.427C304.446 253.373 304.217 252.319 303.934 251.28C302.856 247.085 301.475 242.974 299.801 238.979L299.152 237.489L298.434 236.038C297.975 235.052 297.417 234.12 296.906 233.173C295.846 231.279 294.532 229.539 293.002 228.001C292.986 227.991 292.967 227.988 292.949 227.99C292.931 227.993 292.914 228.001 292.901 228.014C292.888 228.027 292.879 228.044 292.877 228.062C292.874 228.081 292.878 228.099 292.887 228.115C294.311 229.708 295.514 231.487 296.462 233.402C296.929 234.365 297.425 235.312 297.83 236.305L298.464 237.78L299.03 239.308C300.527 243.315 301.729 247.426 302.628 251.608C303.125 253.686 303.453 255.81 303.85 257.911L304.362 261.082C304.546 262.136 304.767 263.183 304.92 264.237C305.256 266.353 305.646 268.462 306.012 270.578C306.379 272.695 306.731 274.818 307.174 276.942C307.179 276.961 307.189 276.978 307.205 276.991C307.22 277.003 307.238 277.01 307.258 277.011C307.28 277.011 307.301 277.002 307.317 276.987C307.333 276.971 307.342 276.949 307.342 276.927C307.342 274.765 307.304 272.603 307.197 270.441C307.09 268.279 306.784 266.132 306.555 263.977Z" fill="#263238"/>
<path d="M302.078 264.26C301.077 261.418 299.916 258.637 298.655 255.917C297.379 253.199 295.94 250.561 294.346 248.017C294.34 248.008 294.332 248 294.323 247.993C294.314 247.987 294.303 247.982 294.292 247.979C294.281 247.977 294.27 247.977 294.259 247.979C294.248 247.98 294.237 247.985 294.228 247.991C294.218 247.997 294.21 248.004 294.203 248.014C294.197 248.023 294.192 248.033 294.19 248.044C294.187 248.055 294.187 248.067 294.189 248.078C294.191 248.089 294.195 248.099 294.201 248.109C295.591 250.747 296.821 253.467 297.883 256.253C298.976 259.019 299.969 261.823 300.794 264.657C301.619 267.492 302.246 270.41 303.01 273.267C303.774 276.125 304.446 279.02 305.302 281.916C305.309 281.933 305.32 281.948 305.335 281.958C305.35 281.969 305.368 281.976 305.386 281.977C305.408 281.977 305.43 281.968 305.445 281.952C305.461 281.937 305.47 281.915 305.47 281.893C305.508 278.872 305.226 275.855 304.63 272.893C304.015 269.951 303.162 267.063 302.078 264.26Z" fill="#263238"/>
<path d="M301.894 273.711C301.342 271.94 300.539 270.258 299.511 268.714C298.555 267.132 297.391 265.685 296.05 264.413C295.365 263.793 294.626 263.235 293.842 262.747C293.071 262.246 292.229 261.865 291.344 261.616C291.324 261.611 291.304 261.613 291.286 261.621C291.267 261.629 291.253 261.644 291.244 261.662C291.236 261.684 291.237 261.707 291.245 261.729C291.254 261.75 291.27 261.767 291.29 261.777C292.885 262.548 294.298 263.646 295.439 265.001C296.593 266.324 297.565 267.797 298.327 269.379C299.152 270.907 299.572 272.649 300.29 274.253C300.603 275.071 300.917 275.896 301.276 276.713C301.585 277.569 301.95 278.403 302.368 279.211C302.376 279.225 302.387 279.236 302.4 279.244C302.414 279.252 302.429 279.257 302.445 279.257C302.467 279.257 302.488 279.248 302.504 279.233C302.52 279.217 302.529 279.196 302.529 279.173C302.56 278.25 302.527 277.326 302.429 276.408C302.307 275.506 302.108 274.605 301.894 273.711Z" fill="#263238"/>
<path d="M302.231 223.745C299.529 222.99 297.085 221.511 295.162 219.469C293.24 217.426 291.911 214.897 291.321 212.155C289.273 202.605 295.866 206.7 289.961 191.703C284.055 176.706 285.415 173.29 287.455 168.974C289.495 164.657 290.641 166.017 292.459 171.701C294.277 177.386 300.863 186.217 303.369 202.834C305.875 219.451 302.231 223.745 302.231 223.745Z" fill="#368DD1"/>
<path d="M319.726 207.609C319.726 207.609 313.821 205.562 313.614 194.43C313.408 183.299 317.931 185.56 318.618 171.701C319.306 157.842 320.208 148.063 322.706 147.834C325.204 147.605 331.797 154.657 334.074 170.112C336.351 185.568 331.118 195.79 326.572 200.336C322.026 204.882 319.726 207.609 319.726 207.609Z" fill="#368DD1"/>
<path d="M299.045 237.153C299.045 237.153 297.685 228.971 294.957 225.105C292.23 221.239 286.324 217.839 282.458 210.337C278.592 202.834 274.276 199.198 274.505 209.878C274.734 220.559 279.502 226.014 285.415 229.651C291.328 233.287 299.045 237.153 299.045 237.153Z" fill="#368DD1"/>
<path d="M296.547 251.241C296.547 251.241 291.084 240.79 283.138 233.066C275.193 225.342 268.821 221.468 271.09 225.334C273.359 229.2 276.094 228.971 279.96 235.793C283.826 242.616 282.688 247.605 288.143 251.471C293.598 255.336 296.547 251.241 296.547 251.241Z" fill="#368DD1"/>
<path d="M295.867 264.65C295.637 263.97 295.408 258.973 287.684 254.878C279.96 250.783 272.687 252.38 273.596 254.427C274.505 256.475 279.272 259.882 284.047 261.93C288.822 263.977 295.867 264.65 295.867 264.65Z" fill="#368DD1"/>
<path d="M319.276 237.604C319.276 237.604 315.868 233.28 317.686 224.188C319.505 215.097 323.592 217.373 328.138 212.598C332.684 207.823 331.775 207.143 336.32 202.147C340.866 197.15 344.954 194.423 346.772 196.463C348.59 198.502 345.863 204.867 343.135 208.511C340.408 212.155 336.091 213.966 334.051 218.512C332.011 223.057 332.913 230.331 327.687 233.738C322.461 237.146 319.276 237.604 319.276 237.604Z" fill="#368DD1"/>
<path d="M330.636 240.11C330.636 240.11 338.819 230.789 344.732 223.974C350.645 217.159 352.914 211.926 353.136 216.472C353.358 221.018 355.184 224.654 350.409 230.56C345.634 236.466 330.636 240.11 330.636 240.11Z" fill="#368DD1"/>
<path d="M326.32 255.107C326.32 255.107 326.09 251.471 339.048 243.059C352.005 234.647 357.453 233.066 356.093 236.473C354.733 239.881 349.049 243.288 342.914 249.461C336.779 255.634 326.32 255.107 326.32 255.107Z" fill="#368DD1"/>
<path d="M302.773 222.775C302.773 222.775 299.717 206.471 296.547 194.881C293.376 183.291 291.321 176.247 291.321 176.247" stroke="#263238" stroke-linecap="round" stroke-linejoin="round"/>
<path d="M319.207 207.808C319.207 207.808 324.731 190.137 326.549 179.456C328.367 168.775 326.32 160.822 325.41 156.047" stroke="#263238" stroke-linecap="round" stroke-linejoin="round"/>
<path d="M298.334 236.84C295.876 232.634 293.065 228.644 289.93 224.914C284.972 218.97 281.091 215.792 278.86 210.1" stroke="#263238" stroke-linecap="round" stroke-linejoin="round"/>
<path d="M319.276 237.604C319.276 237.604 321.094 226.694 325.388 221.01C329.681 215.326 338.376 206.494 341.753 200.779" stroke="#263238" stroke-linecap="round" stroke-linejoin="round"/>
<path d="M295.332 264.405C295.332 264.405 287.692 259.424 282.229 256.696" stroke="#263238" stroke-linecap="round" stroke-linejoin="round"/>
<path d="M317.572 312.606H307.571C306.704 312.607 305.857 312.351 305.135 311.871C304.413 311.391 303.849 310.709 303.514 309.909C300.244 302.078 291.52 279.471 296.776 273.061C301.78 266.949 323.355 266.949 328.367 273.061C333.624 279.471 324.891 302.093 321.629 309.909C321.293 310.708 320.729 311.39 320.008 311.87C319.286 312.35 318.439 312.606 317.572 312.606Z" fill="#263238" stroke="#263238" stroke-linecap="round" stroke-linejoin="round"/>
<path d="M97.433 325.464C93.8413 324.323 90.766 321.953 88.7464 318.771C85.4764 313.507 84.7659 310.803 84.7659 310.803C84.7659 310.803 75.0784 310.658 71.3806 315.074C67.6829 319.49 67.5606 326.465 67.8204 327.458C68.0801 328.451 72.0911 327.886 76.5071 331.163C80.923 334.441 83.4824 340.27 83.7651 340.843C84.0477 341.416 84.1929 342.119 86.3321 341.409C88.4713 340.698 90.1521 338.139 91.3134 337.589C92.4747 337.039 96.8677 338.872 98.1436 337.871C98.9688 337.173 99.5708 336.247 99.875 335.21C100.179 334.172 100.172 333.068 99.8549 332.034C99.1444 329.33 97.0281 324.631 97.433 325.464Z" fill="#368DD1" stroke="#263238" stroke-linecap="round" stroke-linejoin="round"/>
<path d="M86.3321 341.432C88.4636 340.721 90.1521 338.162 91.3133 337.612C92.4746 337.062 96.8676 338.895 98.1435 337.894C98.9687 337.196 99.5708 336.27 99.875 335.233C100.179 334.195 100.172 333.091 99.8549 332.057C99.1602 329.833 98.3466 327.647 97.4177 325.51C97.2191 325.51 94.2318 325.105 92.3065 325.793C90.3813 326.48 88.8915 326.931 88.8915 326.931L91.4509 329.223C90.1266 330.206 88.9328 331.354 87.8983 332.638C86.3703 334.632 85.9042 335.343 86.3703 336.458C86.8363 337.573 85.2243 338.597 84.5137 339.736L83.8032 340.874L85.5222 341.638C85.7966 341.588 86.0672 341.519 86.3321 341.432Z" fill="white" stroke="#263238" stroke-linecap="round" stroke-linejoin="round"/>
<path d="M90.0299 327.756C90.0299 327.756 94.1555 326.763 95.439 326.9C96.7225 327.038 98.1436 328.329 98.4339 331.034C98.7242 333.738 98.5714 334.854 98.1436 335.877C97.7157 336.901 98.1436 336.725 96.5774 336.725C95.5677 336.708 94.5641 336.564 93.5901 336.298C92.9594 336.244 92.3252 336.344 91.7412 336.588C91.7412 336.588 88.4637 339.72 87.1572 340.148C85.8508 340.576 85.0257 340.859 85.6292 339.72C85.9672 339.044 86.3993 338.419 86.9128 337.864L86.3474 336.443C86.3474 336.443 91.1835 331.744 91.3287 330.461L91.4662 329.185L90.0299 327.756Z" fill="white" stroke="#263238" stroke-linecap="round" stroke-linejoin="round"/>
<path d="M77.928 336.022C77.928 336.022 76.6445 333.73 75.0783 333.318C72.0987 332.508 68.8288 340.744 68.3245 342.792C67.8203 344.839 69.6157 349.454 72.3737 347.696C73.9017 346.703 74.7956 346.421 74.5129 344.709C74.2302 342.998 73.5121 344.136 74.0851 341.859C74.6581 339.583 77.928 336.022 77.928 336.022Z" fill="#368DD1" stroke="#263238" stroke-linecap="round" stroke-linejoin="round"/>
<path d="M74.5131 344.709C74.5131 344.709 73.0844 343.708 72.3739 343.999C71.6634 344.289 71.098 344.709 71.098 345.275C71.098 345.84 70.3799 345.848 70.3799 346.558C70.3799 347.269 70.8077 347.414 71.2356 347.696C71.6634 347.979 74.2304 347.696 74.5131 344.709Z" fill="white" stroke="#263238" stroke-linecap="round" stroke-linejoin="round"/>
<path d="M107.823 322.637L108.396 325.915C108.396 325.915 112.812 328.764 115.517 329.475C118.222 330.186 121.209 329.33 123.058 328.474C124.907 327.618 129.17 326.182 129.17 326.182L128.742 324.188C128.742 324.188 112.102 327.756 107.823 322.637Z" fill="white" stroke="#263238" stroke-linecap="round" stroke-linejoin="round"/>
<path d="M108.542 315.807L107.823 322.637C107.823 322.637 113.378 328.749 119.505 328.054C125.632 327.359 128.757 324.234 128.757 324.234V315.983C128.757 315.983 114.661 320.116 108.542 315.807Z" fill="white" stroke="#263238" stroke-linecap="round" stroke-linejoin="round"/>
<path d="M109.818 332.18C109.818 332.18 104.981 337.161 103.706 338.292C102.731 339.064 101.619 339.645 100.428 340.003C100.428 340.003 105.272 344.702 107.694 345.985C110.116 347.269 110.964 346.268 115.952 342.853C120.941 339.438 120.789 338.154 120.536 337.153C120.284 336.152 114.516 332.18 109.818 332.18Z" fill="white" stroke="#263238" stroke-linecap="round" stroke-linejoin="round"/>
<path d="M107.823 350.676C107.823 350.676 104.271 347.681 100.42 348.109C96.5696 348.537 93.4448 352.38 93.4448 352.38L99.1443 355.084C99.6844 355.624 100.253 356.134 100.848 356.612C101.276 356.903 104.981 355.191 104.981 355.191L109.39 354.618C108.978 353.263 108.454 351.944 107.823 350.676Z" fill="#368DD1" stroke="#263238" stroke-linecap="round" stroke-linejoin="round"/>
<path d="M93.4448 352.395L93.59 353.961L100.848 356.666C100.848 356.666 101.559 356.528 99.1443 355.138C97.3066 354.1 95.4027 353.183 93.4448 352.395Z" fill="white" stroke="#263238" stroke-linecap="round" stroke-linejoin="round"/>
<path d="M124.914 353.396C124.914 353.396 122.492 350.691 121.209 350.118C119.925 349.545 117.221 349.836 116.082 350.974L114.944 352.112L119.077 355.1C119.077 355.1 123.768 353.533 124.914 353.396Z" fill="#368DD1" stroke="#263238" stroke-linecap="round" stroke-linejoin="round"/>
<path d="M177.806 348.835C180.991 348.835 183.574 342.78 183.574 335.312C183.574 327.844 180.991 321.789 177.806 321.789C174.62 321.789 172.038 327.844 172.038 335.312C172.038 342.78 174.62 348.835 177.806 348.835Z" fill="#368DD1" stroke="#263238" stroke-linecap="round" stroke-linejoin="round"/>
<path d="M146.413 322.637L145.695 327.221C143.946 328.472 142.09 329.566 140.148 330.491C138.009 331.347 133.456 331.492 131.744 331.064C130.033 330.636 130.041 334.624 131.034 337.757C132.027 340.889 133.028 344.877 138.582 348.147C144.136 351.417 152.961 352.991 161.074 351.967C169.188 350.943 176.736 347.842 177.447 340.293C178.157 332.745 177.875 324.631 171.182 321.193C164.489 317.755 152.388 319.222 146.413 322.637Z" fill="#368DD1" stroke="#263238" stroke-linecap="round" stroke-linejoin="round"/>
<path d="M140.148 330.468C138.009 331.324 133.456 331.469 131.744 331.041C130.033 330.613 130.041 334.601 131.034 337.734C132.027 340.866 133.028 344.854 138.582 348.124C139.393 348.599 140.232 349.022 141.096 349.392C142.081 349.171 142.96 348.98 143.135 348.98C143.762 348.886 144.38 348.743 144.984 348.552L147.689 345.993C147.689 345.993 149.255 341.859 149.4 340.866C149.545 339.873 149.255 334.174 149.255 334.174L156.521 336.022H165.062L169.05 334.601L168.623 331.607C168.623 331.607 165.345 327.787 164.917 327.198C164.09 326.226 163.185 325.321 162.213 324.494C161.785 324.203 156.23 322.928 156.23 322.928L146.413 322.637L145.695 327.221C143.945 328.464 142.089 329.551 140.148 330.468Z" fill="white" stroke="#263238" stroke-linecap="round" stroke-linejoin="round"/>
<path d="M147.689 341.577C147.245 342.749 146.722 343.891 146.123 344.992C145.736 345.456 145.309 345.886 144.847 346.275C144.54 346.738 144.089 347.088 143.563 347.269C142.807 347.4 142.038 347.449 141.271 347.414H140.271C139.222 347.375 138.177 347.28 137.138 347.131V347.207C137.574 347.521 138.032 347.826 138.544 348.124C139.355 348.599 140.194 349.022 141.058 349.392C142.043 349.171 142.922 348.98 143.097 348.98C143.724 348.886 144.342 348.743 144.946 348.552L147.651 345.993C147.651 345.993 149.217 341.859 149.362 340.866C149.507 339.873 149.217 334.174 149.217 334.174L148.224 335.74C148.224 335.74 148.262 340.156 147.689 341.577Z" fill="white" stroke="#263238" stroke-linecap="round" stroke-linejoin="round"/>
<path d="M146.199 323.989L146.413 324.066C146.413 324.066 151.112 324.203 152.961 324.203C154.81 324.203 160.792 325.464 160.792 325.464C160.792 325.464 165.918 329.88 166.346 330.873C166.774 331.866 167.484 333.868 167.484 333.868L167.362 335.182L169.05 334.579L168.623 331.584C168.623 331.584 165.345 327.764 164.917 327.175C164.09 326.203 163.185 325.298 162.213 324.471C161.785 324.18 156.231 322.905 156.231 322.905L146.413 322.614L146.199 323.989Z" fill="white" stroke="#263238" stroke-linecap="round" stroke-linejoin="round"/>
<path d="M154.328 349.392C154.328 349.392 153.144 353.465 150.936 354.985C148.728 356.505 145.175 356.009 144.327 355.665C144.161 355.575 143.974 355.532 143.786 355.541C143.597 355.55 143.415 355.609 143.258 355.714C143.101 355.818 142.975 355.963 142.894 356.134C142.814 356.304 142.781 356.493 142.799 356.681V358.545C142.799 358.545 142.456 359.057 143.135 359.737C143.815 360.417 144.832 361.265 144.832 361.265C144.832 361.265 145.848 361.609 150.424 360.929C155 360.249 157.369 356.857 158.561 354.656C159.752 352.456 160.593 351.264 159.745 349.744C158.897 348.224 157.017 348.04 154.328 349.392Z" fill="#368DD1" stroke="#263238" stroke-linecap="round" stroke-linejoin="round"/>
<path d="M280.755 40.1253C275.949 40.1253 271.26 41.6095 267.329 44.375C263.398 47.1406 260.417 51.0525 258.794 55.5761C257.17 60.0997 256.983 65.0143 258.259 69.6482C259.534 74.282 262.209 78.4091 265.918 81.4653L258.843 92.8413L271.472 84.8651C274.652 86.2438 278.1 86.8967 281.564 86.7763C285.028 86.6559 288.421 85.7653 291.498 84.1691C294.575 82.5729 297.257 80.3114 299.35 77.5487C301.444 74.786 302.895 71.5917 303.599 68.1979C304.303 64.8041 304.242 61.296 303.421 57.9286C302.6 54.5613 301.038 51.4192 298.851 48.7308C296.663 46.0423 293.904 43.8751 290.774 42.3865C287.643 40.898 284.221 40.1255 280.755 40.1253Z" fill="white" stroke="#263238" stroke-linecap="round" stroke-linejoin="round"/>
<path d="M276.408 80.8312V74.3219H283.001V80.8312H276.408ZM278.547 72.0146L276.568 46.2373H283.444L280.915 72.0146H278.547Z" fill="black"/>
<path d="M209.802 66.3305C209.802 66.3305 199.992 70.1887 197.998 75.9645C196.004 81.7404 197.502 83.9942 196.997 88.1885C196.493 92.3829 190.351 94.7742 191.015 99.427C191.68 104.08 197.83 103.247 194.507 107.617C191.183 111.987 186.691 110.994 189.846 118.061C193.002 125.128 201.826 134.105 218.779 132.516C235.732 130.927 245.244 125.915 247.536 122.057C249.828 118.198 252.685 114.027 250.363 112.262C248.04 110.497 244.541 110.979 246.199 107.602C247.857 104.225 250.195 103.43 248.529 98.7699C246.864 94.1095 236.725 95.0798 239.056 88.8379C241.386 82.596 241.348 79.3643 236.229 73.5579C231.11 67.7515 219.78 61.9986 209.802 66.3305Z" fill="#263238" stroke="#263238" stroke-linecap="round" stroke-linejoin="round"/>
<path d="M184.292 220.995C184.46 220.483 183.78 239.911 184.116 246.558C184.453 253.205 184.628 261.723 184.972 270.418C185.316 279.112 185.484 296.325 185.652 298.365C185.82 300.405 184.796 307.739 184.796 307.739C184.796 307.739 185.82 309.443 189.06 308.931C192.299 308.419 192.467 309.619 193.323 307.227C194.178 304.836 195.874 298.197 198.09 286.783C200.306 275.369 201.673 269.57 200.993 264.795C200.313 260.02 199.465 255.42 199.465 254.741C199.465 254.061 205.256 225.09 205.256 225.09L184.292 220.995Z" fill="white" stroke="#263238" stroke-linecap="round" stroke-linejoin="round"/>
<path d="M182.756 305.012C182.756 305.012 180.709 308.763 180.029 309.596C179.349 310.428 174.574 313.003 172.702 314.363C170.83 315.723 169.295 316.579 170.998 318.458C172.702 320.338 180.877 319.986 183.268 319.138C185.66 318.29 188.548 315.899 190.251 315.899C191.955 315.899 195.194 315.899 195.194 312.491C195.216 310.667 195.104 308.844 194.858 307.036C194.858 307.036 196.05 305.333 193.834 305.676C192.104 306.054 190.438 306.684 188.891 307.548C188.891 307.548 185.484 301.436 182.756 305.012Z" fill="#368DD1" stroke="#263238" stroke-linecap="round" stroke-linejoin="round"/>
<path d="M195.164 313.064C193.977 313.091 192.793 313.19 191.619 313.362C186.844 314.05 185.507 316.945 178.837 318.305C174.513 319.192 171.786 317.633 170.433 316.433C170.151 316.999 170.258 317.633 171.029 318.481C172.733 320.353 180.908 320.009 183.299 319.161C185.69 318.313 188.578 315.922 190.282 315.922C191.986 315.922 194.82 315.922 195.164 313.064Z" fill="white" stroke="#263238" stroke-linecap="round" stroke-linejoin="round"/>
<path d="M220.422 225.426C220.422 225.426 227.405 250.309 229.108 254.572C230.557 257.799 232.328 260.87 234.395 263.74C234.395 263.74 242.57 285.896 245.129 291.351C247.689 296.806 250.072 306.005 250.584 307.541C251.147 309.156 251.601 310.808 251.944 312.484C251.944 312.996 253.312 315.54 255.695 314.355C258.079 313.171 258.423 309.588 258.423 309.588C258.423 309.588 258.079 300.038 256.039 284.537C253.999 269.035 250.92 262.892 249.392 260.165C247.864 257.437 247.177 257.437 247.001 255.39C246.825 253.342 242.952 223.378 242.952 222.698C242.952 222.018 225.533 226.793 220.422 225.426Z" fill="white" stroke="#263238" stroke-linecap="round" stroke-linejoin="round"/>
<path d="M256.375 311.834C256.143 311.211 255.779 310.645 255.308 310.174C254.838 309.703 254.271 309.339 253.648 309.107C251.608 308.419 250.24 309.107 249.729 310.979C249.217 312.85 248.369 315.242 248.369 315.242C248.369 315.242 245.129 320.697 243.937 322.4C242.746 324.104 244.465 327.909 248.934 327.825C254.282 327.71 256.039 326.656 257.567 323.241C258.759 320.409 259.779 317.508 260.623 314.554C261.647 311.498 259.599 307.732 259.599 307.732L258.423 306.364C258.423 306.364 257.231 310.635 256.375 311.834Z" fill="#368DD1" stroke="#263238" stroke-linecap="round" stroke-linejoin="round"/>
<path d="M260.784 311.2C260.333 312.453 259.684 314.256 258.881 316.686C257.239 321.613 257.514 324.99 250.852 325.54C246 325.938 244.205 324.646 243.586 323.913C243.739 325.708 245.542 327.893 248.934 327.825C254.282 327.71 256.039 326.656 257.567 323.241C258.759 320.409 259.779 317.508 260.623 314.554C260.953 313.467 261.008 312.314 260.784 311.2Z" fill="white" stroke="#263238" stroke-linecap="round" stroke-linejoin="round"/>
<path d="M195.706 178.05C191.087 182.779 187.593 188.487 185.484 194.751C182.245 204.805 180.197 221.338 180.197 221.338C180.197 221.338 185.308 224.066 198.777 226.45C212.247 228.833 214.111 227.809 214.111 227.809C214.111 227.809 221.27 229.337 232.691 227.305C244.113 225.273 251.096 221.85 251.096 221.85C251.096 221.85 247.513 196.967 244.274 190.32C242.546 186.641 240.433 183.156 237.971 179.922L195.706 178.05Z" fill="#368DD1" stroke="#263238" stroke-linecap="round" stroke-linejoin="round"/>
<path d="M207.128 207.189L212.239 215.028L214.111 227.81" stroke="#263238" stroke-linecap="round" stroke-linejoin="round"/>
<path d="M231.668 181.832C231.668 181.832 234.219 185.408 234.724 192.528" stroke="#263238" stroke-linecap="round" stroke-linejoin="round"/>
<path d="M226.045 182.649L227.237 188.96" stroke="#263238" stroke-linecap="round" stroke-linejoin="round"/>
<path d="M202.185 180.098C202.185 180.098 199.794 186.745 199.625 188.448" stroke="#263238" stroke-linecap="round" stroke-linejoin="round"/>
<path d="M198.09 179.242L196.218 182.649" stroke="#263238" stroke-linecap="round" stroke-linejoin="round"/>
<path d="M195.729 173.619V178.05C195.729 178.05 201.016 180.946 216.182 182.138C231.133 183.314 237.994 179.922 237.994 179.922V176.003L195.729 173.619Z" fill="#263238" stroke="#263238" stroke-linecap="round" stroke-linejoin="round"/>
<path d="M224.035 108.442C224.035 108.442 223.875 116.693 224.356 118.473C224.838 120.254 225.006 121.384 228.558 120.765C232.111 120.147 233.41 118.176 237.619 119.146C241.829 120.116 243.601 125.938 243.441 135.641C243.281 145.343 239.56 154.244 239.239 158.767C238.918 163.29 239.399 172.84 238.59 174.299C237.78 175.758 236.649 178.341 221.606 176.881C206.563 175.422 197.83 174.78 195.729 173.65C193.628 172.519 195.408 169.119 195.89 167.988C196.371 166.858 197.67 161.036 196.379 157.292C194.922 153.415 194.645 149.194 195.584 145.16C196.279 141.472 196.767 137.748 197.043 134.006C197.043 134.006 180.548 146.291 176.828 146.619C173.107 146.948 173.107 144.518 174.398 142.249C175.689 139.98 182.16 135.457 186.042 128.497C189.923 121.537 193.162 119.604 197.502 118.794C201.841 117.985 209.634 119.604 209.634 119.604C209.634 119.604 211.926 111.353 211.086 107.151L224.035 108.442Z" fill="white" stroke="#263238" stroke-linecap="round" stroke-linejoin="round"/>
<path d="M238.589 174.268C239.399 172.809 238.91 163.267 239.239 158.736C239.43 156.032 240.828 151.769 241.966 146.703C240.023 145.202 238.416 143.31 237.248 141.149C236.081 138.988 235.38 136.607 235.19 134.158C234.58 129.069 234.752 123.916 235.702 118.878C232.913 118.802 231.515 120.223 228.558 120.758C227.651 120.989 226.7 120.989 225.792 120.758C224.578 121.803 223.167 122.596 221.643 123.09C220.119 123.585 218.512 123.771 216.915 123.638C211.681 123.142 209.237 120.529 208.389 119.36C207.128 119.138 205.058 118.817 202.903 118.657C202.07 123.745 197.028 133.99 197.028 133.99C196.757 137.738 196.275 141.467 195.584 145.16C194.637 149.188 194.903 153.407 196.348 157.285C197.639 161.005 196.348 166.827 195.859 167.981C195.37 169.134 193.567 172.511 195.699 173.642C197.83 174.773 206.54 175.422 221.575 176.874C236.611 178.325 237.78 175.72 238.589 174.268Z" fill="white" stroke="#263238" stroke-linecap="round" stroke-linejoin="round"/>
<path d="M209.489 121.01C209.923 121.01 210.276 120.658 210.276 120.223C210.276 119.788 209.923 119.436 209.489 119.436C209.054 119.436 208.702 119.788 208.702 120.223C208.702 120.658 209.054 121.01 209.489 121.01Z" fill="#263238" stroke="#263238" stroke-linecap="round" stroke-linejoin="round"/>
<path d="M210.283 122.301C210.283 122.091 210.2 121.89 210.052 121.742C209.903 121.594 209.702 121.51 209.493 121.51C209.283 121.51 209.082 121.594 208.933 121.742C208.785 121.89 208.702 122.091 208.702 122.301C208.702 122.511 208.785 122.712 208.933 122.86C209.082 123.009 209.283 123.092 209.493 123.092C209.702 123.092 209.903 123.009 210.052 122.86C210.2 122.712 210.283 122.511 210.283 122.301Z" fill="#263238" stroke="#263238" stroke-linecap="round" stroke-linejoin="round"/>
<path d="M210.497 124.303C210.497 124.093 210.414 123.892 210.266 123.744C210.117 123.595 209.916 123.512 209.706 123.512C209.497 123.512 209.296 123.595 209.147 123.744C208.999 123.892 208.916 124.093 208.916 124.303C208.916 124.513 208.999 124.714 209.147 124.862C209.296 125.01 209.497 125.094 209.706 125.094C209.916 125.094 210.117 125.01 210.266 124.862C210.414 124.714 210.497 124.513 210.497 124.303Z" fill="#263238" stroke="#263238" stroke-linecap="round" stroke-linejoin="round"/>
<path d="M210.864 126.648C210.864 126.497 210.819 126.349 210.735 126.224C210.651 126.098 210.532 126 210.392 125.942C210.253 125.885 210.099 125.869 209.951 125.899C209.803 125.928 209.667 126.001 209.56 126.108C209.453 126.215 209.38 126.351 209.351 126.499C209.321 126.647 209.336 126.801 209.394 126.941C209.452 127.08 209.55 127.2 209.675 127.284C209.801 127.367 209.949 127.412 210.1 127.412C210.303 127.412 210.497 127.332 210.64 127.189C210.783 127.045 210.864 126.851 210.864 126.648Z" fill="#263238" stroke="#263238" stroke-linecap="round" stroke-linejoin="round"/>
<path d="M210.283 129.704C210.718 129.704 211.07 129.352 211.07 128.917C211.07 128.483 210.718 128.13 210.283 128.13C209.849 128.13 209.496 128.483 209.496 128.917C209.496 129.352 209.849 129.704 210.283 129.704Z" fill="#263238" stroke="#263238" stroke-linecap="round" stroke-linejoin="round"/>
<path d="M211.467 130.995C211.467 130.786 211.384 130.585 211.236 130.436C211.088 130.288 210.886 130.205 210.677 130.205C210.467 130.205 210.266 130.288 210.118 130.436C209.969 130.585 209.886 130.786 209.886 130.995C209.886 131.205 209.969 131.406 210.118 131.555C210.266 131.703 210.467 131.786 210.677 131.786C210.886 131.786 211.088 131.703 211.236 131.555C211.384 131.406 211.467 131.205 211.467 130.995Z" fill="#263238" stroke="#263238" stroke-linecap="round" stroke-linejoin="round"/>
<path d="M211.766 133.165C211.766 133.014 211.721 132.866 211.637 132.741C211.553 132.615 211.434 132.517 211.294 132.459C211.154 132.402 211.001 132.386 210.853 132.416C210.704 132.445 210.568 132.518 210.461 132.625C210.354 132.732 210.282 132.868 210.252 133.016C210.223 133.164 210.238 133.318 210.296 133.458C210.354 133.597 210.451 133.716 210.577 133.8C210.703 133.884 210.85 133.929 211.002 133.929C211.204 133.929 211.399 133.849 211.542 133.705C211.685 133.562 211.766 133.368 211.766 133.165Z" fill="#263238" stroke="#263238" stroke-linecap="round" stroke-linejoin="round"/>
<path d="M212.155 134.846C212.155 134.695 212.11 134.547 212.026 134.422C211.942 134.296 211.823 134.198 211.684 134.14C211.544 134.082 211.39 134.067 211.242 134.097C211.094 134.126 210.958 134.199 210.851 134.306C210.744 134.413 210.671 134.549 210.642 134.697C210.612 134.845 210.628 134.999 210.685 135.138C210.743 135.278 210.841 135.397 210.967 135.481C211.092 135.565 211.24 135.61 211.391 135.61C211.594 135.61 211.788 135.53 211.931 135.386C212.075 135.243 212.155 135.049 212.155 134.846Z" fill="#263238" stroke="#263238" stroke-linecap="round" stroke-linejoin="round"/>
<path d="M212.552 136.756C212.552 136.605 212.508 136.457 212.424 136.332C212.34 136.206 212.22 136.108 212.081 136.05C211.941 135.992 211.788 135.977 211.639 136.007C211.491 136.036 211.355 136.109 211.248 136.216C211.141 136.323 211.069 136.459 211.039 136.607C211.01 136.755 211.025 136.909 211.083 137.048C211.14 137.188 211.238 137.307 211.364 137.391C211.49 137.475 211.637 137.52 211.788 137.52C211.991 137.52 212.185 137.44 212.329 137.296C212.472 137.153 212.552 136.959 212.552 136.756Z" fill="#263238" stroke="#263238" stroke-linecap="round" stroke-linejoin="round"/>
<path d="M213.446 138.697C213.446 138.545 213.401 138.398 213.317 138.272C213.234 138.146 213.114 138.049 212.975 137.991C212.835 137.933 212.681 137.918 212.533 137.947C212.385 137.977 212.249 138.049 212.142 138.156C212.035 138.263 211.962 138.399 211.933 138.548C211.903 138.696 211.919 138.849 211.976 138.989C212.034 139.129 212.132 139.248 212.258 139.332C212.383 139.416 212.531 139.461 212.682 139.461C212.885 139.461 213.079 139.38 213.222 139.237C213.366 139.094 213.446 138.899 213.446 138.697Z" fill="#263238" stroke="#263238" stroke-linecap="round" stroke-linejoin="round"/>
<path d="M213.935 140.874C214.37 140.874 214.722 140.522 214.722 140.087C214.722 139.652 214.37 139.3 213.935 139.3C213.501 139.3 213.148 139.652 213.148 140.087C213.148 140.522 213.501 140.874 213.935 140.874Z" fill="#263238" stroke="#263238" stroke-linecap="round" stroke-linejoin="round"/>
<path d="M215.715 141.065C216.15 141.065 216.502 140.713 216.502 140.278C216.502 139.843 216.15 139.491 215.715 139.491C215.281 139.491 214.928 139.843 214.928 140.278C214.928 140.713 215.281 141.065 215.715 141.065Z" fill="#263238" stroke="#263238" stroke-linecap="round" stroke-linejoin="round"/>
<path d="M217.984 140.966C218.419 140.966 218.771 140.613 218.771 140.179C218.771 139.744 218.419 139.392 217.984 139.392C217.55 139.392 217.198 139.744 217.198 140.179C217.198 140.613 217.55 140.966 217.984 140.966Z" fill="#263238" stroke="#263238" stroke-linecap="round" stroke-linejoin="round"/>
<path d="M219.864 139.98C220.298 139.98 220.651 139.628 220.651 139.193C220.651 138.759 220.298 138.406 219.864 138.406C219.429 138.406 219.077 138.759 219.077 139.193C219.077 139.628 219.429 139.98 219.864 139.98Z" fill="#263238" stroke="#263238" stroke-linecap="round" stroke-linejoin="round"/>
<path d="M222.141 137.52C222.141 137.369 222.096 137.221 222.012 137.096C221.928 136.97 221.809 136.872 221.669 136.814C221.529 136.756 221.376 136.741 221.228 136.771C221.079 136.8 220.943 136.873 220.836 136.98C220.729 137.087 220.657 137.223 220.627 137.371C220.598 137.519 220.613 137.673 220.671 137.812C220.729 137.952 220.826 138.071 220.952 138.155C221.078 138.239 221.225 138.284 221.377 138.284C221.579 138.284 221.774 138.203 221.917 138.06C222.06 137.917 222.141 137.723 222.141 137.52Z" fill="#263238" stroke="#263238" stroke-linecap="round" stroke-linejoin="round"/>
<path d="M222.63 136.328C223.064 136.328 223.417 135.976 223.417 135.541C223.417 135.107 223.064 134.754 222.63 134.754C222.195 134.754 221.843 135.107 221.843 135.541C221.843 135.976 222.195 136.328 222.63 136.328Z" fill="#263238" stroke="#263238" stroke-linecap="round" stroke-linejoin="round"/>
<path d="M224.112 133.7C224.112 133.549 224.067 133.401 223.983 133.276C223.899 133.15 223.78 133.052 223.64 132.994C223.501 132.936 223.347 132.921 223.199 132.951C223.05 132.98 222.914 133.053 222.808 133.16C222.701 133.267 222.628 133.403 222.598 133.551C222.569 133.699 222.584 133.853 222.642 133.992C222.7 134.132 222.798 134.251 222.923 134.335C223.049 134.419 223.197 134.464 223.348 134.464C223.55 134.464 223.745 134.384 223.888 134.24C224.031 134.097 224.112 133.903 224.112 133.7Z" fill="#263238" stroke="#263238" stroke-linecap="round" stroke-linejoin="round"/>
<path d="M225.105 131.782C225.105 131.631 225.06 131.484 224.976 131.358C224.892 131.232 224.773 131.134 224.633 131.077C224.494 131.019 224.34 131.004 224.192 131.033C224.044 131.063 223.908 131.135 223.801 131.242C223.694 131.349 223.621 131.485 223.592 131.633C223.562 131.782 223.577 131.935 223.635 132.075C223.693 132.214 223.791 132.334 223.916 132.418C224.042 132.502 224.19 132.546 224.341 132.546C224.544 132.546 224.738 132.466 224.881 132.323C225.024 132.179 225.105 131.985 225.105 131.782Z" fill="#263238" stroke="#263238" stroke-linecap="round" stroke-linejoin="round"/>
<path d="M224.807 130.598C225.242 130.598 225.594 130.246 225.594 129.811C225.594 129.377 225.242 129.024 224.807 129.024C224.372 129.024 224.02 129.377 224.02 129.811C224.02 130.246 224.372 130.598 224.807 130.598Z" fill="#263238" stroke="#263238" stroke-linecap="round" stroke-linejoin="round"/>
<path d="M226.679 127.932C226.679 127.781 226.634 127.633 226.55 127.507C226.466 127.382 226.347 127.284 226.207 127.226C226.068 127.168 225.914 127.153 225.766 127.182C225.618 127.212 225.481 127.285 225.375 127.392C225.268 127.498 225.195 127.635 225.166 127.783C225.136 127.931 225.151 128.085 225.209 128.224C225.267 128.364 225.365 128.483 225.49 128.567C225.616 128.651 225.764 128.696 225.915 128.696C226.118 128.696 226.312 128.615 226.455 128.472C226.598 128.329 226.679 128.134 226.679 127.932Z" fill="#263238" stroke="#263238" stroke-linecap="round" stroke-linejoin="round"/>
<path d="M227.175 126.152C227.175 125.942 227.092 125.741 226.944 125.593C226.796 125.444 226.594 125.361 226.385 125.361C226.175 125.361 225.974 125.444 225.826 125.593C225.677 125.741 225.594 125.942 225.594 126.152C225.594 126.361 225.677 126.563 225.826 126.711C225.974 126.859 226.175 126.942 226.385 126.942C226.594 126.942 226.796 126.859 226.944 126.711C227.092 126.563 227.175 126.361 227.175 126.152Z" fill="#263238" stroke="#263238" stroke-linecap="round" stroke-linejoin="round"/>
<path d="M227.672 124.173C227.672 124.022 227.627 123.874 227.543 123.748C227.459 123.623 227.34 123.525 227.2 123.467C227.061 123.409 226.907 123.394 226.759 123.424C226.611 123.453 226.475 123.526 226.368 123.633C226.261 123.74 226.188 123.876 226.159 124.024C226.129 124.172 226.144 124.326 226.202 124.465C226.26 124.605 226.358 124.724 226.484 124.808C226.609 124.892 226.757 124.937 226.908 124.937C227.111 124.937 227.305 124.856 227.448 124.713C227.592 124.57 227.672 124.376 227.672 124.173Z" fill="#263238" stroke="#263238" stroke-linecap="round" stroke-linejoin="round"/>
<path d="M228.161 122.5C228.161 122.349 228.116 122.201 228.032 122.075C227.948 121.95 227.829 121.852 227.689 121.794C227.55 121.736 227.396 121.721 227.248 121.75C227.1 121.78 226.964 121.853 226.857 121.96C226.75 122.066 226.677 122.203 226.648 122.351C226.618 122.499 226.633 122.653 226.691 122.792C226.749 122.932 226.847 123.051 226.973 123.135C227.098 123.219 227.246 123.264 227.397 123.264C227.6 123.264 227.794 123.183 227.937 123.04C228.081 122.897 228.161 122.702 228.161 122.5Z" fill="#263238" stroke="#263238" stroke-linecap="round" stroke-linejoin="round"/>
<path d="M227.771 121.522C228.206 121.522 228.558 121.17 228.558 120.735C228.558 120.3 228.206 119.948 227.771 119.948C227.337 119.948 226.984 120.3 226.984 120.735C226.984 121.17 227.337 121.522 227.771 121.522Z" fill="#263238" stroke="#263238" stroke-linecap="round" stroke-linejoin="round"/>
<path d="M220.85 75.636C220.85 75.636 219.322 79.3949 218.405 80.5256C217.488 81.6563 214.462 82.9704 211.643 82.7794C208.824 82.5884 206.937 81.6563 204.309 84.0935C201.681 86.5306 202.781 91.0535 202.781 91.8022C202.781 92.5509 204.851 104.21 205.6 106.471C206.349 108.732 213.92 113.637 216.151 113.836C218.382 114.035 223.86 110.833 225.93 108.763C228.001 106.693 228.375 100.306 228.933 98.6095C229.49 96.9134 229.88 90.343 229.88 90.343C230.053 89.3639 229.927 88.3552 229.518 87.4488C229.109 86.5425 228.437 85.7805 227.588 85.2624C224.616 83.1767 220.101 79.2344 220.85 75.636Z" fill="white" stroke="#263238" stroke-linecap="round" stroke-linejoin="round"/>
<path d="M213.813 97.2114C213.813 97.2114 215.104 98.5025 216.304 98.4032C217.372 98.2426 218.337 97.6727 218.993 96.8141" stroke="#263238" stroke-linecap="round" stroke-linejoin="round"/>
<path d="M206.448 87.9517C206.448 87.9517 207.044 85.1707 210.726 85.7666" stroke="#263238" stroke-linecap="round" stroke-linejoin="round"/>
<path d="M220.384 85.4687C220.384 85.4687 224.662 84.5671 225.732 87.3557" stroke="#263238" stroke-linecap="round" stroke-linejoin="round"/>
<path d="M210.967 94.2228C211.542 94.1698 211.925 93.2174 211.822 92.0956C211.719 90.9737 211.168 90.1072 210.593 90.1602C210.017 90.2132 209.634 91.1656 209.738 92.2875C209.841 93.4093 210.391 94.2758 210.967 94.2228Z" fill="#263238"/>
<path d="M222.966 92.2988C222.836 93.4219 222.27 94.2776 221.697 94.2165C221.124 94.1553 220.765 93.1851 220.888 92.0696C221.01 90.9542 221.583 90.0909 222.156 90.1596C222.729 90.2284 223.088 91.1834 222.966 92.2988Z" fill="#263238"/>
<path d="M203.063 93.6282C203.063 93.6282 201.069 89.3498 199.878 92.933C198.686 96.5161 200.474 98.4032 201.574 99.3047C202.497 100.019 203.458 100.682 204.454 101.291L203.063 93.6282Z" fill="white" stroke="#263238" stroke-linecap="round" stroke-linejoin="round"/>
<path d="M229.842 93.208C229.842 93.208 231.828 90.152 232.63 92.91C233.433 95.6681 232.531 97.3871 231.431 98.5865C230.479 99.5538 229.458 100.45 228.375 101.268L229.376 97.2878L229.842 93.208Z" fill="white" stroke="#263238" stroke-linecap="round" stroke-linejoin="round"/>
<path d="M202.865 122.194C202.865 122.194 204.156 114.333 204.553 112.446C204.951 110.558 205.951 108.626 206.746 105.379C207.541 102.132 208.136 101.994 208.839 102.689C209.542 103.384 209.435 105.073 209.237 105.875C209.038 106.677 208.74 107.961 208.74 107.961C208.74 107.961 211.124 104.477 212.025 102.987C212.927 101.497 213.614 100.695 214.317 100.894C214.457 100.936 214.588 101.006 214.699 101.101C214.811 101.195 214.903 101.311 214.968 101.442C215.033 101.573 215.071 101.716 215.078 101.862C215.086 102.009 215.064 102.155 215.012 102.292C215.629 101.498 216.195 100.666 216.709 99.8013C216.907 99.404 217.602 99.3047 218.198 99.9999C218.404 100.223 218.542 100.501 218.595 100.801C218.647 101.1 218.613 101.408 218.496 101.688C218.397 102.193 217.404 105.172 217.404 105.172C217.404 105.172 218.802 103.881 219.398 104.08C219.994 104.278 219.994 105.379 219.299 106.67C218.603 107.961 217.9 111.254 217.702 112.018C217.503 112.782 217.251 113.798 217.251 113.798C218.234 113.158 219.068 112.313 219.696 111.322C220.788 109.634 221.086 108.534 221.583 109.137C222.079 109.741 221.583 110.727 220.987 112.018C220.278 114.169 218.965 116.07 217.205 117.496C214.218 120.185 211.093 123.608 209.84 124.96C208.587 126.312 200.978 135.014 196.6 140.194C192.222 145.374 184.659 152.93 182.665 155.023C180.671 157.117 178.188 159.699 173.405 156.719C168.622 153.74 170.219 146.566 173.504 143.281C176.79 139.995 194.308 131.133 197.395 128.444C199.452 126.577 201.287 124.48 202.865 122.194Z" fill="white" stroke="#263238" stroke-linecap="round" stroke-linejoin="round"/>
<path d="M215.005 102.292L210.826 111.544" stroke="#263238" stroke-linecap="round" stroke-linejoin="round"/>
<path d="M217.396 105.172L214.21 113.141" stroke="#263238" stroke-linecap="round" stroke-linejoin="round"/>
<path d="M217.243 113.821L216.403 115.524" stroke="#263238" stroke-linecap="round" stroke-linejoin="round"/>
<path d="M208.74 107.961C208.74 107.961 206.578 109.856 206.089 111.322" stroke="#263238" stroke-linecap="round" stroke-linejoin="round"/>
<path d="M240.477 135.167L253.281 148.56C253.281 148.56 243.968 160.639 241.203 163.695C239.722 165.368 238.115 166.926 236.397 168.355C236.397 168.355 232.18 167.476 230.866 166.315C229.552 165.154 228.574 163.259 226.358 161.8C224.142 160.341 218.206 159.768 218.642 161.074C219.077 162.381 222.721 162.679 222.721 162.679L226.213 165.88L226.977 168.172C225.737 167.791 224.595 167.145 223.631 166.277C222.324 164.963 218.535 163.947 218.825 165.696C219.115 167.446 220.575 167.438 222.645 169.333C224.715 171.228 224.937 172.824 227.007 173.986C228.397 174.702 229.975 174.969 231.523 174.75C232.06 175.259 232.705 175.641 233.41 175.867C234.115 176.093 234.862 176.158 235.595 176.056C238.215 175.766 239.231 175.04 240.4 173.436C241.569 171.831 258.087 161.51 260.524 158.308C262.961 155.107 268.386 149.576 268.676 147.834C268.966 146.092 265.475 141.867 262.564 138.368C259.653 134.869 256.528 131.026 249.469 122.507C245.244 117.412 238.987 116.105 235.06 119.887" fill="white"/>
<path d="M240.477 135.167L253.281 148.56C253.281 148.56 243.968 160.639 241.203 163.695C239.722 165.368 238.115 166.926 236.397 168.355C236.397 168.355 232.18 167.476 230.866 166.315C229.552 165.154 228.574 163.259 226.358 161.8C224.142 160.341 218.206 159.768 218.642 161.074C219.077 162.381 222.721 162.679 222.721 162.679L226.213 165.88L226.977 168.172C225.737 167.791 224.595 167.145 223.631 166.277C222.324 164.963 218.535 163.947 218.825 165.696C219.115 167.446 220.575 167.438 222.645 169.333C224.715 171.228 224.937 172.824 227.007 173.986C228.397 174.702 229.975 174.969 231.523 174.75C232.06 175.259 232.705 175.641 233.41 175.867C234.115 176.093 234.862 176.158 235.595 176.056C238.215 175.766 239.231 175.04 240.4 173.436C241.569 171.831 258.087 161.51 260.524 158.308C262.961 155.107 268.386 149.576 268.676 147.834C268.966 146.092 265.475 141.867 262.564 138.368C259.653 134.869 256.528 131.026 249.469 122.507C245.244 117.412 238.987 116.105 235.06 119.887" stroke="#263238" stroke-linecap="round" stroke-linejoin="round"/>
<path d="M231.599 165.467C231.599 165.467 227.779 161.525 226.702 160.952C225.625 160.379 224.31 161.326 222.721 162.679C221.132 164.031 221.957 164.504 222.951 164.207C223.944 163.909 226.121 162.862 226.121 162.862L229.177 166.896" fill="white"/>
<path d="M231.599 165.467C231.599 165.467 227.779 161.525 226.702 160.952C225.625 160.379 224.31 161.326 222.721 162.679C221.132 164.031 221.957 164.504 222.951 164.207C223.944 163.909 226.121 162.862 226.121 162.862L229.177 166.896" stroke="#263238" stroke-linecap="round" stroke-linejoin="round"/>
<path d="M234.387 166.621C234.387 166.621 232.462 163.733 231.889 163.45C231.316 163.167 228.329 167.003 227.947 167.866C227.565 168.729 227.084 170.464 228.138 170.158C229.192 169.852 230.254 168.523 230.736 167.95C231.133 167.561 231.635 167.296 232.18 167.186L232.944 168.149" fill="white"/>
<path d="M234.387 166.621C234.387 166.621 232.462 163.733 231.889 163.45C231.316 163.167 228.329 167.003 227.947 167.866C227.565 168.729 227.084 170.464 228.138 170.158C229.192 169.852 230.254 168.523 230.736 167.95C231.133 167.561 231.635 167.296 232.18 167.186L232.944 168.149" stroke="#263238" stroke-linecap="round" stroke-linejoin="round"/>
<path d="M237.169 169.883C236.72 168.624 236.109 167.43 235.35 166.33C234.479 165.368 232.753 166.521 232.18 167.194C231.607 167.866 231.217 170.555 230.827 171.419C230.438 172.282 231.118 172.481 231.981 171.808C232.788 171.068 233.499 170.228 234.097 169.31" fill="white"/>
<path d="M237.169 169.883C236.72 168.624 236.109 167.43 235.35 166.33C234.479 165.368 232.753 166.521 232.18 167.194C231.607 167.866 231.217 170.555 230.827 171.419C230.438 172.282 231.118 172.481 231.981 171.808C232.788 171.068 233.499 170.228 234.097 169.31" stroke="#263238" stroke-linecap="round" stroke-linejoin="round"/>
<path d="M107.952 111.544C106.904 111.544 105.879 111.855 105.007 112.437C104.136 113.02 103.456 113.847 103.055 114.816C102.654 115.784 102.549 116.85 102.754 117.878C102.958 118.906 103.463 119.851 104.204 120.592C104.945 121.333 105.89 121.838 106.918 122.043C107.946 122.247 109.012 122.142 109.98 121.741C110.949 121.34 111.777 120.66 112.359 119.789C112.941 118.917 113.252 117.893 113.252 116.844C113.252 115.439 112.694 114.09 111.7 113.096C110.706 112.102 109.358 111.544 107.952 111.544ZM107.952 116.331C107.648 116.331 107.35 116.241 107.097 116.072C106.845 115.903 106.647 115.663 106.531 115.382C106.415 115.101 106.384 114.792 106.443 114.493C106.503 114.195 106.649 113.921 106.864 113.706C107.08 113.49 107.354 113.344 107.652 113.285C107.95 113.225 108.26 113.256 108.541 113.372C108.822 113.489 109.062 113.686 109.231 113.939C109.4 114.192 109.49 114.489 109.49 114.793C109.49 114.995 109.45 115.195 109.373 115.382C109.296 115.569 109.183 115.738 109.04 115.881C108.897 116.024 108.727 116.137 108.541 116.214C108.354 116.292 108.154 116.331 107.952 116.331Z" fill="#368DD1"/>
<path opacity="0.6" d="M107.952 111.544C106.904 111.544 105.879 111.855 105.007 112.437C104.136 113.02 103.456 113.847 103.055 114.816C102.654 115.784 102.549 116.85 102.754 117.878C102.958 118.906 103.463 119.851 104.204 120.592C104.945 121.333 105.89 121.838 106.918 122.043C107.946 122.247 109.012 122.142 109.98 121.741C110.949 121.34 111.777 120.66 112.359 119.789C112.941 118.917 113.252 117.893 113.252 116.844C113.252 115.439 112.694 114.09 111.7 113.096C110.706 112.102 109.358 111.544 107.952 111.544ZM107.952 116.331C107.648 116.331 107.35 116.241 107.097 116.072C106.845 115.903 106.647 115.663 106.531 115.382C106.415 115.101 106.384 114.792 106.443 114.493C106.503 114.195 106.649 113.921 106.864 113.706C107.08 113.49 107.354 113.344 107.652 113.285C107.95 113.225 108.26 113.256 108.541 113.372C108.822 113.489 109.062 113.686 109.231 113.939C109.4 114.192 109.49 114.489 109.49 114.793C109.49 114.995 109.45 115.195 109.373 115.382C109.296 115.569 109.183 115.738 109.04 115.881C108.897 116.024 108.727 116.137 108.541 116.214C108.354 116.292 108.154 116.331 107.952 116.331Z" fill="white"/>
<path d="M160.396 118.503H55.5031C53.1199 118.503 51.188 120.435 51.188 122.818V279.129C51.188 281.512 53.1199 283.444 55.5031 283.444H160.396C162.779 283.444 164.711 281.512 164.711 279.129V122.818C164.711 120.435 162.779 118.503 160.396 118.503Z" fill="#368DD1"/>
<path opacity="0.8" d="M158.702 128.09H57.1968V275.597H158.702V128.09Z" fill="white"/>
<path d="M134.949 117.098H80.9556C80.3416 117.098 79.8438 117.596 79.8438 118.21V125.134C79.8438 125.749 80.3416 126.246 80.9556 126.246H134.949C135.563 126.246 136.061 125.749 136.061 125.134V118.21C136.061 117.596 135.563 117.098 134.949 117.098Z" fill="#368DD1"/>
<path opacity="0.4" d="M134.949 117.098H80.9556C80.3416 117.098 79.8438 117.596 79.8438 118.21V125.134C79.8438 125.749 80.3416 126.246 80.9556 126.246H134.949C135.563 126.246 136.061 125.749 136.061 125.134V118.21C136.061 117.596 135.563 117.098 134.949 117.098Z" fill="white"/>
<path d="M128.732 134.744H112.463C112.132 134.75 111.805 134.665 111.519 134.498C111.233 134.332 110.997 134.09 110.838 133.799C110.56 133.278 110.144 132.842 109.637 132.538C109.13 132.234 108.549 132.073 107.958 132.073C107.366 132.073 106.786 132.234 106.279 132.538C105.772 132.842 105.356 133.278 105.077 133.799C104.918 134.09 104.683 134.331 104.396 134.497C104.11 134.664 103.784 134.749 103.453 134.744H87.1661C86.7077 134.744 86.2681 134.562 85.944 134.238C85.6198 133.914 85.4377 133.474 85.4377 133.016V123.308C85.4377 122.85 85.6198 122.41 85.944 122.086C86.2681 121.762 86.7077 121.58 87.1661 121.58H128.732C129.191 121.58 129.63 121.762 129.955 122.086C130.279 122.41 130.461 122.85 130.461 123.308V132.987C130.465 133.216 130.423 133.444 130.338 133.657C130.252 133.87 130.126 134.064 129.965 134.228C129.804 134.391 129.612 134.521 129.401 134.61C129.189 134.698 128.962 134.744 128.732 134.744ZM107.952 130.913C108.754 130.911 109.541 131.129 110.229 131.542C110.916 131.955 111.478 132.549 111.852 133.258C111.915 133.363 112.005 133.449 112.112 133.508C112.22 133.567 112.341 133.596 112.463 133.592H128.732C128.885 133.592 129.032 133.531 129.14 133.423C129.248 133.315 129.309 133.168 129.309 133.016V123.308C129.309 123.155 129.248 123.009 129.14 122.901C129.032 122.793 128.885 122.732 128.732 122.732H87.1661C87.0133 122.732 86.8667 122.793 86.7587 122.901C86.6507 123.009 86.59 123.155 86.59 123.308V132.987C86.59 133.14 86.6507 133.286 86.7587 133.394C86.8667 133.502 87.0133 133.563 87.1661 133.563H103.447C103.568 133.566 103.689 133.537 103.795 133.479C103.901 133.42 103.99 133.334 104.052 133.229C104.431 132.526 104.994 131.938 105.681 131.531C106.368 131.123 107.153 130.909 107.952 130.913Z" fill="#263238"/>
<g opacity="0.2">
<path d="M128.732 134.744H112.463C112.132 134.75 111.805 134.665 111.519 134.498C111.233 134.332 110.997 134.09 110.838 133.799C110.56 133.278 110.144 132.842 109.637 132.538C109.13 132.234 108.549 132.073 107.958 132.073C107.366 132.073 106.786 132.234 106.279 132.538C105.772 132.842 105.356 133.278 105.077 133.799C104.918 134.09 104.683 134.331 104.396 134.497C104.11 134.664 103.784 134.749 103.453 134.744H87.1661C86.7077 134.744 86.2681 134.562 85.944 134.238C85.6198 133.914 85.4377 133.474 85.4377 133.016V123.308C85.4377 122.85 85.6198 122.41 85.944 122.086C86.2681 121.762 86.7077 121.58 87.1661 121.58H128.732C129.191 121.58 129.63 121.762 129.955 122.086C130.279 122.41 130.461 122.85 130.461 123.308V132.987C130.465 133.216 130.423 133.444 130.338 133.657C130.252 133.87 130.126 134.064 129.965 134.228C129.804 134.391 129.612 134.521 129.401 134.61C129.189 134.698 128.962 134.744 128.732 134.744ZM107.952 130.913C108.754 130.911 109.541 131.129 110.229 131.542C110.916 131.955 111.478 132.549 111.852 133.258C111.915 133.363 112.005 133.449 112.112 133.508C112.22 133.567 112.341 133.596 112.463 133.592H128.732C128.885 133.592 129.032 133.531 129.14 133.423C129.248 133.315 129.309 133.168 129.309 133.016V123.308C129.309 123.155 129.248 123.009 129.14 122.901C129.032 122.793 128.885 122.732 128.732 122.732H87.1661C87.0133 122.732 86.8667 122.793 86.7587 122.901C86.6507 123.009 86.59 123.155 86.59 123.308V132.987C86.59 133.14 86.6507 133.286 86.7587 133.394C86.8667 133.502 87.0133 133.563 87.1661 133.563H103.447C103.568 133.566 103.689 133.537 103.795 133.479C103.901 133.42 103.99 133.334 104.052 133.229C104.431 132.526 104.994 131.938 105.681 131.531C106.368 131.123 107.153 130.909 107.952 130.913Z" fill="white"/>
</g>
<path d="M126.267 119.892H89.6549C89.2858 119.892 88.9866 120.191 88.9866 120.56V123.153C88.9866 123.522 89.2858 123.821 89.6549 123.821H126.267C126.636 123.821 126.935 123.522 126.935 123.153V120.56C126.935 120.191 126.636 119.892 126.267 119.892Z" fill="#368DD1"/>
<path opacity="0.6" d="M126.25 119.892H89.6378C89.2687 119.892 88.9695 120.191 88.9695 120.56V123.153C88.9695 123.522 89.2687 123.821 89.6378 123.821H126.25C126.619 123.821 126.918 123.522 126.918 123.153V120.56C126.918 120.191 126.619 119.892 126.25 119.892Z" fill="white"/>
<path opacity="0.3" d="M117.377 208.653H107.123V218.908H117.377V208.653Z" fill="black"/>
<path opacity="0.3" d="M116.179 223.033H108.321C108.003 223.033 107.698 222.907 107.474 222.682C107.249 222.457 107.123 222.152 107.123 221.835C107.124 221.518 107.251 221.215 107.476 220.991C107.7 220.768 108.004 220.642 108.321 220.642H116.179C116.496 220.642 116.8 220.768 117.024 220.991C117.249 221.215 117.376 221.518 117.377 221.835C117.377 222.152 117.251 222.457 117.026 222.682C116.802 222.907 116.497 223.033 116.179 223.033Z" fill="black"/>
<path opacity="0.3" d="M149.179 208.653H122.804C122.2 208.653 121.71 209.143 121.71 209.748V209.754C121.71 210.358 122.2 210.848 122.804 210.848H149.179C149.783 210.848 150.273 210.358 150.273 209.754V209.748C150.273 209.143 149.783 208.653 149.179 208.653Z" fill="black"/>
<path opacity="0.3" d="M143.418 214.414H122.804C122.2 214.414 121.71 214.904 121.71 215.509V215.515C121.71 216.119 122.2 216.609 122.804 216.609H143.418C144.022 216.609 144.512 216.119 144.512 215.515V215.509C144.512 214.904 144.022 214.414 143.418 214.414Z" fill="black"/>
<path opacity="0.3" d="M149.179 220.176H122.804C122.2 220.176 121.71 220.666 121.71 221.27V221.276C121.71 221.88 122.2 222.37 122.804 222.37H149.179C149.783 222.37 150.273 221.88 150.273 221.276V221.27C150.273 220.666 149.783 220.176 149.179 220.176Z" fill="black"/>
<path opacity="0.3" d="M134.2 225.937H122.804C122.2 225.937 121.71 226.427 121.71 227.031V227.037C121.71 227.642 122.2 228.132 122.804 228.132H134.2C134.804 228.132 135.294 227.642 135.294 227.037V227.031C135.294 226.427 134.804 225.937 134.2 225.937Z" fill="black"/>
<path opacity="0.3" d="M138.261 143.282H77.355C76.8283 143.28 76.3237 143.071 75.9513 142.698C75.5788 142.326 75.369 141.821 75.3674 141.294C75.3674 140.767 75.5768 140.262 75.9496 139.889C76.3223 139.516 76.8279 139.307 77.355 139.307H138.261C138.789 139.307 139.294 139.516 139.667 139.889C140.04 140.262 140.249 140.767 140.249 141.294C140.248 141.821 140.038 142.326 139.665 142.698C139.293 143.071 138.788 143.28 138.261 143.282Z" fill="black"/>
<path opacity="0.3" d="M148.418 155.046H108.217C107.926 155.045 107.648 154.928 107.443 154.722C107.238 154.516 107.123 154.237 107.123 153.946C107.123 153.655 107.238 153.377 107.443 153.172C107.648 152.966 107.927 152.851 108.217 152.851H148.418C148.708 152.851 148.987 152.966 149.192 153.172C149.397 153.377 149.513 153.655 149.513 153.946C149.513 154.237 149.398 154.516 149.193 154.722C148.987 154.928 148.709 155.045 148.418 155.046Z" fill="black"/>
<path opacity="0.3" d="M142.657 160.807H108.217C107.926 160.806 107.648 160.689 107.443 160.483C107.238 160.277 107.123 159.998 107.123 159.707C107.123 159.417 107.238 159.138 107.443 158.933C107.648 158.728 107.927 158.612 108.217 158.612H142.657C142.947 158.612 143.226 158.728 143.431 158.933C143.636 159.138 143.752 159.417 143.752 159.707C143.752 159.998 143.637 160.277 143.431 160.483C143.226 160.689 142.948 160.806 142.657 160.807Z" fill="black"/>
<path opacity="0.3" d="M148.418 166.568H108.217C107.926 166.567 107.648 166.45 107.443 166.244C107.238 166.038 107.123 165.759 107.123 165.468C107.123 165.178 107.238 164.899 107.443 164.694C107.648 164.489 107.927 164.373 108.217 164.373H148.418C148.708 164.373 148.987 164.489 149.192 164.694C149.397 164.899 149.513 165.178 149.513 165.468C149.513 165.759 149.398 166.038 149.193 166.244C148.987 166.45 148.709 166.567 148.418 166.568Z" fill="black"/>
<path opacity="0.3" d="M136.896 172.329H108.217C107.926 172.328 107.648 172.211 107.443 172.005C107.238 171.799 107.123 171.52 107.123 171.229C107.123 170.939 107.238 170.66 107.443 170.455C107.648 170.25 107.927 170.134 108.217 170.134H136.896C137.186 170.134 137.465 170.25 137.67 170.455C137.875 170.66 137.991 170.939 137.991 171.229C137.991 171.52 137.875 171.799 137.67 172.005C137.465 172.211 137.187 172.328 136.896 172.329Z" fill="black"/>
<path opacity="0.3" d="M109.997 179.197L110.631 180.476L112.048 180.683L111.023 181.68L111.265 183.091L109.997 182.423L108.736 183.091L108.978 181.68L107.952 180.683L109.364 180.476L109.997 179.197Z" fill="black"/>
<path opacity="0.3" d="M117.153 179.197L117.786 180.476L119.198 180.683L118.172 181.68L118.414 183.091L117.153 182.423L115.885 183.091L116.127 181.68L115.102 180.683L116.519 180.476L117.153 179.197Z" fill="black"/>
<path opacity="0.3" d="M124.302 179.197L124.936 180.476L126.353 180.683L125.328 181.68L125.57 183.091L124.302 182.423L123.035 183.091L123.277 181.68L122.257 180.683L123.669 180.476L124.302 179.197Z" fill="black"/>
<path opacity="0.3" d="M131.457 179.197L132.085 180.476L133.503 180.683L132.477 181.68L132.719 183.091L131.457 182.423L130.19 183.091L130.432 181.68L129.406 180.683L130.824 180.476L131.457 179.197Z" fill="black"/>
<path opacity="0.3" d="M138.607 179.197L139.241 180.476L140.652 180.683L139.632 181.68L139.874 183.091L138.607 182.423L137.34 183.091L137.581 181.68L136.562 180.683L137.973 180.476L138.607 179.197Z" fill="black"/>
<path opacity="0.3" d="M109.997 186.536L110.631 187.815L112.048 188.023L111.023 189.019L111.265 190.431L109.997 189.763L108.736 190.431L108.978 189.019L107.952 188.023L109.364 187.815L109.997 186.536Z" fill="black"/>
<path opacity="0.3" d="M117.153 186.536L117.786 187.815L119.198 188.023L118.172 189.019L118.414 190.431L117.153 189.763L115.885 190.431L116.127 189.019L115.102 188.023L116.519 187.815L117.153 186.536Z" fill="black"/>
<path opacity="0.3" d="M124.302 186.536L124.936 187.815L126.353 188.023L125.328 189.019L125.57 190.431L124.302 189.763L123.035 190.431L123.277 189.019L122.257 188.023L123.669 187.815L124.302 186.536Z" fill="black"/>
<path opacity="0.1" d="M131.457 186.536L132.085 187.815L133.503 188.023L132.477 189.019L132.719 190.431L131.457 189.763L130.19 190.431L130.432 189.019L129.406 188.023L130.824 187.815L131.457 186.536Z" fill="black"/>
<path opacity="0.1" d="M138.607 186.536L139.241 187.815L140.652 188.023L139.632 189.019L139.874 190.431L138.607 189.763L137.34 190.431L137.581 189.019L136.562 188.023L137.973 187.815L138.607 186.536Z" fill="black"/>
<path opacity="0.3" d="M109.997 193.876L110.631 195.155L112.048 195.362L111.023 196.359L111.265 197.771L109.997 197.102L108.736 197.771L108.978 196.359L107.952 195.362L109.364 195.155L109.997 193.876Z" fill="black"/>
<path opacity="0.3" d="M117.153 193.876L117.786 195.155L119.198 195.362L118.172 196.359L118.414 197.771L117.153 197.102L115.885 197.771L116.127 196.359L115.102 195.362L116.519 195.155L117.153 193.876Z" fill="black"/>
<path opacity="0.3" d="M124.302 193.876L124.936 195.155L126.353 195.362L125.328 196.359L125.57 197.771L124.302 197.102L123.035 197.771L123.277 196.359L122.257 195.362L123.669 195.155L124.302 193.876Z" fill="black"/>
<path opacity="0.3" d="M131.457 193.876L132.085 195.155L133.503 195.362L132.477 196.359L132.719 197.771L131.457 197.102L130.19 197.771L130.432 196.359L129.406 195.362L130.824 195.155L131.457 193.876Z" fill="black"/>
<path opacity="0.1" d="M138.607 193.876L139.241 195.155L140.652 195.362L139.632 196.359L139.874 197.771L138.607 197.102L137.34 197.771L137.581 196.359L136.562 195.362L137.973 195.155L138.607 193.876Z" fill="black"/>
<path opacity="0.3" d="M117.377 237.459H107.123V247.714H117.377V237.459Z" fill="black"/>
<path opacity="0.3" d="M116.179 251.839H108.321C108.003 251.839 107.698 251.712 107.474 251.488C107.249 251.263 107.123 250.958 107.123 250.64C107.124 250.323 107.251 250.02 107.476 249.797C107.7 249.573 108.004 249.448 108.321 249.448H116.179C116.496 249.448 116.8 249.573 117.024 249.797C117.249 250.02 117.376 250.323 117.377 250.64C117.377 250.958 117.251 251.263 117.026 251.488C116.802 251.712 116.497 251.839 116.179 251.839Z" fill="black"/>
<path opacity="0.3" d="M149.179 237.459H122.804C122.2 237.459 121.71 237.949 121.71 238.553V238.559C121.71 239.164 122.2 239.654 122.804 239.654H149.179C149.783 239.654 150.273 239.164 150.273 238.559V238.553C150.273 237.949 149.783 237.459 149.179 237.459Z" fill="black"/>
<path opacity="0.3" d="M143.418 243.22H122.804C122.2 243.22 121.71 243.71 121.71 244.315V244.32C121.71 244.925 122.2 245.415 122.804 245.415H143.418C144.022 245.415 144.512 244.925 144.512 244.32V244.315C144.512 243.71 144.022 243.22 143.418 243.22Z" fill="black"/>
<path opacity="0.3" d="M149.179 248.981H122.804C122.2 248.981 121.71 249.471 121.71 250.076V250.081C121.71 250.686 122.2 251.176 122.804 251.176H149.179C149.783 251.176 150.273 250.686 150.273 250.081V250.076C150.273 249.471 149.783 248.981 149.179 248.981Z" fill="black"/>
<path opacity="0.3" d="M134.2 254.742H122.804C122.2 254.742 121.71 255.232 121.71 255.837V255.843C121.71 256.447 122.2 256.937 122.804 256.937H134.2C134.804 256.937 135.294 256.447 135.294 255.843V255.837C135.294 255.232 134.804 254.742 134.2 254.742Z" fill="black"/>
<path d="M100.578 152.851H63.6033V201.947H100.578V152.851Z" fill="white"/>
<path d="M98.8497 154.579H65.3315V200.219H98.8497V154.579Z" fill="#368DD1"/>
<path opacity="0.4" d="M98.8497 154.579H65.3315V200.219H98.8497V154.579Z" fill="white"/>
<path d="M98.8497 190.022V200.219H96.2456C95.5252 199.533 94.7311 198.928 93.8778 198.416C93.4666 198.168 93.0251 197.974 92.5643 197.84C88.6525 196.78 94.2926 186.317 94.2926 186.317C95.5946 186.732 97.2135 188.207 98.8497 190.022Z" fill="#368DD1"/>
<path opacity="0.6" d="M98.8497 190.022V200.219H96.2456C95.5252 199.533 94.7311 198.928 93.8778 198.416C93.4666 198.168 93.0251 197.974 92.5643 197.84C88.6525 196.78 94.2926 186.317 94.2926 186.317C95.5946 186.732 97.2135 188.207 98.8497 190.022Z" fill="white"/>
<path opacity="0.2" d="M98.8495 200.184V200.219H96.2455C95.5251 199.533 94.731 198.928 93.8777 198.416L94.6497 193.594C95.4027 194.218 96.0709 194.939 96.6373 195.737C97.6221 197.083 98.3702 198.587 98.8495 200.184Z" fill="black"/>
<path d="M91.6714 185.897C91.5907 186.312 91.5101 186.732 91.4179 187.147C91.3257 187.562 91.199 188.132 91.078 188.622C89.8221 193.674 87.7481 198.099 84.7753 200.219H74.6127C71.6573 198.715 71.0927 196.186 71.1906 193.536C71.254 191.744 71.6227 189.918 71.7668 188.351C71.8124 187.811 71.8124 187.267 71.7668 186.727C71.6919 185.908 71.5363 184.923 71.3462 183.846C70.4648 178.828 68.7422 171.586 69.6179 167.87C70.6606 163.354 73.956 162.109 73.956 162.109C73.956 162.109 75.0736 162.034 76.7904 162.046C78.0579 162.046 79.671 162.109 81.359 162.271H81.48C83.3733 162.441 85.2486 162.773 87.0855 163.262L87.5061 163.382C87.8691 163.492 88.232 163.607 88.5834 163.734C88.8139 163.815 89.0386 163.901 89.2632 163.993C89.5546 164.117 89.8174 164.299 90.0352 164.529C92.645 167.208 93.2903 177.031 91.6714 185.897Z" fill="#263238"/>
<path d="M88.6353 164.552C92.2936 162.824 93.8721 174.755 92.5643 183.368" stroke="#263238" stroke-width="0.5" stroke-linecap="round" stroke-linejoin="round"/>
<path d="M96.9138 200.219H70.62C70.5106 199.724 70.4011 199.228 70.2859 198.738C69.6366 195.871 68.7758 193.056 67.7107 190.316C68.7879 189.675 69.9127 189.119 71.0752 188.651C71.2941 188.553 71.5188 188.461 71.7608 188.368C72.671 188.005 73.7311 187.631 74.9178 187.274L75.2981 187.164C76.191 186.905 77.1532 186.663 78.1786 186.45C80.3189 186.001 82.4923 185.727 84.6772 185.632C86.3402 185.554 88.0066 185.58 89.6663 185.713C90.3173 185.759 90.9798 185.822 91.6539 185.908C92.5007 186.012 93.3822 186.145 94.2521 186.312C94.3501 186.467 95.9517 189.014 96.6142 195.743C96.7755 197.068 96.8734 198.554 96.9138 200.219Z" fill="#368DD1"/>
<path d="M75.0678 192.407C75.0678 192.407 72.0605 184.998 81.4511 184.163C90.8417 183.327 92.7141 189.181 92.7141 189.181L88.3529 187.671L86.0485 198.301C84.568 194.247 81.6366 190.887 77.8216 188.87L75.0678 192.407Z" fill="#368DD1"/>
<path opacity="0.6" d="M75.0678 192.407C75.0678 192.407 72.0605 184.998 81.4511 184.163C90.8417 183.327 92.7141 189.181 92.7141 189.181L88.3529 187.671L86.0485 198.301C84.568 194.247 81.6366 190.887 77.8216 188.87L75.0678 192.407Z" fill="white"/>
<path d="M85.6567 193.594C83.2382 191.085 80.4923 188.915 77.4932 187.141C79.74 185.24 79.5096 182.244 79.0602 180.36C78.9174 179.769 78.7247 179.191 78.4841 178.632L84.7234 180.141C84.5308 181.01 84.4018 181.892 84.3374 182.78C84.2835 183.434 84.3086 184.091 84.4123 184.739C84.7406 186.646 85.8122 186.726 85.8122 186.726C86.8319 188.87 85.6567 193.594 85.6567 193.594Z" fill="#E4897B"/>
<path opacity="0.2" d="M84.3605 182.774C84.3065 183.428 84.3317 184.086 84.4354 184.733C81.9523 184.272 80.1606 182.169 79.0602 180.372C78.9175 179.781 78.7247 179.202 78.4841 178.644L84.7234 180.153C84.5394 181.017 84.4181 181.893 84.3605 182.774Z" fill="black"/>
<path d="M82.3844 162.242C89.1767 162.242 89.7471 165.526 90.1388 171.183C90.6228 178.258 89.0442 183.281 82.1827 181.749C72.867 179.681 73.2645 162.242 82.3844 162.242Z" fill="#E4897B"/>
<path d="M86.5901 170.872C87.0261 171.701 87.5599 172.474 88.1802 173.176C88.0206 173.404 87.8009 173.583 87.5455 173.693C87.2901 173.803 87.0091 173.839 86.7341 173.799L86.5901 170.872Z" fill="#DE5753"/>
<path d="M83.2311 170.434C83.2311 170.889 83.0064 171.258 82.7011 171.264C82.3958 171.269 82.125 170.912 82.125 170.457C82.125 170.002 82.3497 169.639 82.6493 169.633C82.9488 169.627 83.2196 169.962 83.2311 170.434Z" fill="#263238"/>
<path d="M82.5457 169.633L83.5193 169.224C83.5193 169.224 83.0469 170.06 82.5457 169.633Z" fill="#263238"/>
<path d="M88.8368 170.198C88.8368 170.653 88.6122 171.022 88.3068 171.027C88.0015 171.033 87.7307 170.676 87.7307 170.221C87.7307 169.766 87.9554 169.403 88.255 169.397C88.5545 169.391 88.8253 169.749 88.8368 170.198Z" fill="#263238"/>
<path d="M88.1511 169.42L89.119 169.017C89.119 169.017 88.6811 169.858 88.1511 169.42Z" fill="#263238"/>
<path d="M83.1851 166.62C83.1851 166.62 81.6412 166.419 80.8 167.444" stroke="#263238" stroke-width="0.707962" stroke-linecap="round" stroke-linejoin="round"/>
<path d="M87.1777 166.401C87.5524 166.307 87.9436 166.299 88.3218 166.378C88.7 166.457 89.0554 166.62 89.3612 166.856" stroke="#263238" stroke-width="0.707962" stroke-linecap="round" stroke-linejoin="round"/>
<path d="M76.4793 171.811C76.4793 171.811 79.0545 167.306 78.6743 163.82C78.6743 163.82 82.5458 159.828 87.7596 163.774C87.7596 163.774 89.943 167.53 90.064 170.446C90.064 170.446 91.1471 160.652 81.7104 160.404C72.2737 160.156 72.2968 173.971 77.1591 178.096C77.1591 178.096 74.8835 174.628 76.4793 171.811Z" fill="#263238"/>
<path d="M77.3723 172.969C77.3194 172.334 77.0178 171.746 76.5333 171.333C76.0488 170.92 75.4206 170.715 74.7856 170.762C73.0572 170.947 72.2622 174.438 76.5139 175.285C77.1015 175.406 77.4472 174.813 77.3723 172.969Z" fill="#E4897B"/>
<path d="M85.9909 176.771C85.9909 176.771 83.6864 177.29 82.7358 175.233" stroke="#263238" stroke-width="0.707962" stroke-linecap="round" stroke-linejoin="round"/>
<path d="M78.6742 163.82C78.6742 163.82 84.9481 161.038 89.1018 164.713C89.1018 164.713 90.7322 159.874 85.167 158.22C79.6017 156.567 73.9443 162.132 73.9443 162.132L78.6742 163.82Z" fill="#263238"/>
<path d="M78.6742 163.82C78.6742 163.82 75.0101 167.433 75.5401 174.628C76.0701 181.824 75.373 186.375 73.9443 190.88C72.5155 195.385 76.2487 196.728 76.2487 196.728C76.2487 196.728 71.9855 197.776 71.1098 193.214C70.5337 190.218 71.9049 183.731 71.2135 176.005C70.5222 168.279 73.2818 162.812 78.6742 163.82Z" fill="#263238"/>
<path opacity="0.2" d="M71.8359 200.219H70.6203C70.5108 199.724 70.4014 199.228 70.2861 198.738L71.2021 197.938C71.461 198.684 71.6726 199.446 71.8359 200.219Z" fill="black"/>
<path d="M71.2079 200.219H65.3315V192.153C66.0582 191.465 66.8536 190.853 67.7051 190.327C68.5504 190.684 69.289 191.254 69.8492 191.981C70.4095 192.708 70.7723 193.567 70.9025 194.475C71.0722 195.62 71.1703 196.775 71.1963 197.932C71.2252 198.756 71.2194 199.545 71.2079 200.219Z" fill="#368DD1"/>
<path opacity="0.6" d="M71.2079 200.219H65.3315V192.153C66.0582 191.465 66.8536 190.853 67.7051 190.327C68.5504 190.684 69.289 191.254 69.8492 191.981C70.4095 192.708 70.7723 193.567 70.9025 194.475C71.0722 195.62 71.1703 196.775 71.1963 197.932C71.2252 198.756 71.2194 199.545 71.2079 200.219Z" fill="white"/>
<path opacity="0.3" d="M100.578 207.668H63.6033V256.695H100.578V207.668Z" fill="black"/>
<path opacity="0.3" d="M94.3618 215.267H69.1454C68.8546 215.265 68.5761 215.149 68.371 214.943C68.1659 214.736 68.0508 214.457 68.0508 214.167C68.0508 213.876 68.1661 213.598 68.3714 213.393C68.5767 213.187 68.8551 213.072 69.1454 213.072H94.3618C94.506 213.071 94.649 213.099 94.7824 213.154C94.9159 213.208 95.0372 213.289 95.1395 213.391C95.2418 213.492 95.3229 213.613 95.3783 213.746C95.4336 213.88 95.4621 214.022 95.4621 214.167C95.4621 214.311 95.4337 214.454 95.3784 214.588C95.3231 214.721 95.242 214.843 95.1398 214.945C95.0377 215.047 94.9164 215.128 94.7829 215.183C94.6494 215.239 94.5063 215.267 94.3618 215.267Z" fill="white"/>
<path opacity="0.3" d="M94.3675 219.202H69.1454C68.5409 219.202 68.0508 219.692 68.0508 220.296V220.302C68.0508 220.907 68.5409 221.397 69.1454 221.397H94.3675C94.9721 221.397 95.4621 220.907 95.4621 220.302V220.296C95.4621 219.692 94.9721 219.202 94.3675 219.202Z" fill="white"/>
<path opacity="0.3" d="M82.8395 227.532H69.1454C68.8546 227.531 68.5761 227.414 68.371 227.208C68.1659 227.002 68.0508 226.723 68.0508 226.432C68.0508 226.142 68.1661 225.863 68.3714 225.658C68.5767 225.453 68.8551 225.337 69.1454 225.337H82.8395C82.9838 225.337 83.1267 225.364 83.2602 225.419C83.3937 225.474 83.515 225.554 83.6173 225.656C83.7195 225.758 83.8007 225.879 83.856 226.012C83.9114 226.145 83.9399 226.288 83.9399 226.432C83.9399 226.724 83.824 227.004 83.6176 227.21C83.4113 227.417 83.1314 227.532 82.8395 227.532Z" fill="white"/>
<path opacity="0.3" d="M94.3618 233.662H69.1454C68.8551 233.662 68.5767 233.547 68.3714 233.342C68.1661 233.136 68.0508 232.858 68.0508 232.568C68.0508 232.277 68.1659 231.998 68.371 231.792C68.5761 231.585 68.8546 231.469 69.1454 231.467H94.3618C94.6536 231.467 94.9335 231.583 95.1398 231.79C95.3462 231.996 95.4621 232.276 95.4621 232.568C95.4621 232.712 95.4336 232.855 95.3783 232.988C95.3229 233.121 95.2418 233.242 95.1395 233.344C95.0372 233.445 94.9159 233.526 94.7824 233.581C94.649 233.635 94.506 233.663 94.3618 233.662Z" fill="white"/>
<path opacity="0.3" d="M94.3618 239.792H69.1454C68.8551 239.792 68.5767 239.677 68.3714 239.471C68.1661 239.266 68.0508 238.988 68.0508 238.697C68.0508 238.407 68.1661 238.129 68.3714 237.923C68.5767 237.718 68.8551 237.603 69.1454 237.603H94.3618C94.506 237.602 94.649 237.63 94.7824 237.684C94.9159 237.739 95.0372 237.82 95.1395 237.921C95.2418 238.023 95.3229 238.144 95.3783 238.277C95.4336 238.41 95.4621 238.553 95.4621 238.697C95.4621 238.842 95.4336 238.984 95.3783 239.118C95.3229 239.251 95.2418 239.372 95.1395 239.473C95.0372 239.575 94.9159 239.656 94.7824 239.71C94.649 239.765 94.506 239.793 94.3618 239.792Z" fill="white"/>
<path opacity="0.3" d="M77.0785 245.905H69.1454C68.8551 245.905 68.5767 245.789 68.3714 245.584C68.1661 245.379 68.0508 245.1 68.0508 244.81C68.05 244.666 68.0778 244.523 68.1325 244.389C68.1871 244.256 68.2676 244.135 68.3694 244.032C68.4711 243.93 68.592 243.849 68.7252 243.793C68.8584 243.738 69.0012 243.71 69.1454 243.71H77.0785C77.2232 243.709 77.3666 243.737 77.5004 243.792C77.6343 243.847 77.7559 243.928 77.8582 244.03C77.9606 244.133 78.0416 244.254 78.0966 244.388C78.1516 244.522 78.1796 244.665 78.1788 244.81C78.1788 244.954 78.1503 245.097 78.095 245.23C78.0396 245.363 77.9584 245.484 77.8562 245.586C77.7539 245.688 77.6326 245.768 77.4991 245.823C77.3656 245.878 77.2227 245.905 77.0785 245.905Z" fill="white"/>
<path opacity="0.3" d="M88.6007 252.057H69.1454C68.8551 252.057 68.5767 251.942 68.3714 251.737C68.1661 251.532 68.0508 251.253 68.0508 250.963C68.0508 250.673 68.1661 250.394 68.3714 250.189C68.5767 249.984 68.8551 249.868 69.1454 249.868H88.6007C88.7449 249.867 88.8878 249.895 89.0213 249.95C89.1548 250.005 89.2761 250.085 89.3784 250.187C89.4806 250.289 89.5618 250.409 89.6172 250.543C89.6725 250.676 89.701 250.819 89.701 250.963C89.701 251.107 89.6725 251.25 89.6172 251.383C89.5618 251.516 89.4806 251.637 89.3784 251.739C89.2761 251.841 89.1548 251.921 89.0213 251.976C88.8878 252.03 88.7449 252.058 88.6007 252.057Z" fill="white"/>
<path d="M30.6824 52.939C31.9368 56.2408 32.3651 59.2807 31.9673 62.0588C31.5696 64.8368 30.5128 67.2337 28.7969 69.2493C27.0909 71.2613 24.8946 72.7775 22.2083 73.7981C19.5122 74.8224 16.8565 75.1439 14.2412 74.7625C11.6258 74.3812 9.24901 73.2888 7.11068 71.4855C4.9784 69.6686 3.28693 67.1142 2.03624 63.8222C0.781849 60.5205 0.348652 57.4824 0.736652 54.7081C1.13442 51.93 2.18634 49.535 3.89241 47.5231C5.59848 45.5111 7.79957 43.993 10.4957 42.9687C13.182 41.9481 15.831 41.6236 18.4426 41.9952C21.064 42.3631 23.4457 43.4536 25.5877 45.2667C27.7298 47.0798 29.428 49.6373 30.6824 52.939ZM23.2681 55.7559C22.5259 53.8022 21.6203 52.2571 20.5513 51.1205C19.4921 49.9803 18.313 49.2601 17.0141 48.9599C15.7249 48.6561 14.3574 48.7787 12.9117 49.328C11.4757 49.8736 10.3718 50.6898 9.59979 51.7768C8.82782 52.8637 8.41951 54.187 8.37485 55.7466C8.33997 57.3025 8.69364 59.0573 9.43589 61.011C10.1781 62.9647 11.0788 64.5116 12.138 65.6518C13.207 66.7884 14.3909 67.5067 15.6899 67.8069C16.9889 68.1071 18.3563 67.9844 19.7923 67.4388C21.238 66.8896 22.342 66.0733 23.1042 64.9901C23.8762 63.9031 24.2796 62.5817 24.3145 61.0258C24.3591 59.4662 24.0103 57.7096 23.2681 55.7559Z" fill="url(#paint0_linear_90_577)"/>
<path d="M63.2408 40.5695C64.4952 43.8713 64.9236 46.9112 64.5258 49.6893C64.128 52.4673 63.0712 54.8642 61.3554 56.8798C59.6493 58.8918 57.4531 60.408 54.7668 61.4286C52.0706 62.4529 49.4149 62.7744 46.7996 62.393C44.1843 62.0117 41.8075 60.9193 39.6691 59.116C37.5368 57.2991 35.8454 54.7447 34.5947 51.4527C33.3403 48.1509 32.9071 45.1129 33.2951 42.3385C33.6929 39.5605 34.7448 37.1655 36.4509 35.1535C38.1569 33.1416 40.358 31.6235 43.0541 30.5992C45.7405 29.5786 48.3894 29.2541 51.0011 29.6257C53.6224 29.9935 56.0041 31.0841 58.1462 32.8972C60.2882 34.7103 61.9864 37.2678 63.2408 40.5695ZM55.8265 43.3864C55.0843 41.4327 54.1787 39.8875 53.1097 38.751C52.0506 37.6108 50.8715 36.8906 49.5725 36.5904C48.2833 36.2865 46.9159 36.4092 45.4701 36.9585C44.0342 37.504 42.9302 38.3203 42.1582 39.4072C41.3863 40.4942 40.978 41.8175 40.9333 43.3771C40.8984 44.933 41.2521 46.6877 41.9943 48.6414C42.7366 50.5952 43.6373 52.1421 44.6965 53.2823C45.7654 54.4189 46.9494 55.1372 48.2484 55.4374C49.5473 55.7375 50.9148 55.6149 52.3507 55.0693C53.7965 54.52 54.9005 53.7038 55.6626 52.6206C56.4346 51.5336 56.838 50.2122 56.8729 48.6563C56.9176 47.0967 56.5688 45.3401 55.8265 43.3864Z" fill="url(#paint1_linear_90_577)"/>
<path d="M73.1759 53.9652L61.7751 23.9563L74.1713 19.2467C76.418 18.3932 78.5241 18.0961 80.4895 18.3555C82.4609 18.6014 84.1879 19.3369 85.6707 20.5622C87.1497 21.7777 88.2807 23.416 89.0638 25.4771C89.8506 27.5481 90.0848 29.5327 89.7664 31.431C89.4541 33.3159 88.6241 35.0005 87.2766 36.485C85.929 37.9695 84.1075 39.1478 81.8119 40.02L74.1631 42.9258L71.9921 37.2113L78.2928 34.8175C79.3868 34.4019 80.2278 33.8644 80.8157 33.2051C81.4134 32.542 81.7728 31.7963 81.894 30.9677C82.0115 30.1294 81.8958 29.2512 81.5469 28.3329C81.1944 27.4049 80.6996 26.6763 80.0625 26.147C79.4218 25.6079 78.6597 25.2938 77.7762 25.2047C76.8928 25.1155 75.9089 25.2769 74.8246 25.6889L71.2493 27.0472L80.429 51.2096L73.1759 53.9652Z" fill="url(#paint2_linear_90_577)"/>
<path d="M108.331 16.5643C107.825 15.5269 107.073 14.8568 106.075 14.5541C105.083 14.238 103.879 14.349 102.462 14.8871C101.524 15.2434 100.789 15.6624 100.257 16.1441C99.7244 16.6258 99.3836 17.141 99.2343 17.6896C99.0813 18.2284 99.1038 18.7731 99.3018 19.3239C99.453 19.7807 99.6912 20.1429 100.017 20.4105C100.352 20.6745 100.76 20.866 101.241 20.985C101.728 21.0905 102.282 21.1371 102.904 21.1246C103.525 21.1122 104.205 21.0493 104.945 20.936L107.746 20.5424C109.353 20.3006 110.826 20.2332 112.163 20.3399C113.51 20.443 114.71 20.7191 115.764 21.1683C116.828 21.6138 117.743 22.2441 118.511 23.059C119.279 23.8739 119.896 24.8803 120.363 26.0781C121.073 27.9769 121.212 29.7852 120.78 31.503C120.349 33.2208 119.381 34.7789 117.878 36.1772C116.385 37.5718 114.387 38.7441 111.887 39.6942C109.376 40.648 107.045 41.1032 104.894 41.0599C102.742 41.0166 100.857 40.4248 99.2391 39.2845C97.621 38.1442 96.352 36.4074 95.432 34.0741L102.377 31.4354C102.803 32.3803 103.368 33.0878 104.073 33.5581C104.777 34.0284 105.592 34.2775 106.519 34.3053C107.456 34.3294 108.457 34.1392 109.522 33.7346C110.499 33.3635 111.279 32.9162 111.863 32.3926C112.456 31.8654 112.849 31.2968 113.042 30.6869C113.235 30.077 113.222 29.4674 113.001 28.858C112.776 28.2951 112.417 27.8784 111.923 27.6078C111.425 27.3274 110.764 27.1761 109.939 27.154C109.121 27.1184 108.117 27.1814 106.926 27.3431L103.512 27.8017C100.687 28.1931 98.2752 28.0084 96.2759 27.2477C94.2728 26.4772 92.8438 24.9521 91.9889 22.6723C91.274 20.82 91.1543 19.0043 91.6297 17.2251C92.1052 15.446 93.0834 13.8279 94.5644 12.371C96.0453 10.9141 97.9238 9.75325 100.2 8.88853C102.525 8.00526 104.692 7.63452 106.702 7.7763C108.719 7.90461 110.469 8.49698 111.955 9.55343C113.441 10.6099 114.548 12.0673 115.276 13.9256L108.331 16.5643Z" fill="url(#paint3_linear_90_577)"/>
<path d="M124.357 0.180334L131.593 21.258L125.571 23.546L116.987 2.98045L124.357 0.180334ZM132.227 32.017C131.182 32.4141 130.142 32.3843 129.108 31.9277C128.083 31.4673 127.371 30.7096 126.97 29.6546C126.576 28.6192 126.612 27.5941 127.076 26.5794C127.546 25.5512 128.304 24.8386 129.349 24.4415C130.355 24.0592 131.38 24.0946 132.424 24.5475C133.474 24.987 134.196 25.7244 134.589 26.7599C134.856 27.4632 134.919 28.1717 134.776 28.8854C134.644 29.5953 134.354 30.2307 133.908 30.7916C133.471 31.3487 132.911 31.7572 132.227 32.017Z" fill="url(#paint4_linear_90_577)"/>
<path d="M27.0011 128.563L15.6003 98.5538L36.5244 90.6043L38.7623 96.4948L25.0912 101.689L27.4293 107.843L40.0307 103.055L42.2741 108.96L29.6727 113.748L32.0164 119.917L45.6874 114.723L47.9253 120.613L27.0011 128.563Z" fill="url(#paint5_linear_90_577)"/>
<path d="M48.4078 86.0896L57.4897 93.488L57.7241 93.3989L59.6611 81.8143L67.7788 78.7303L64.4238 97.175L79.4727 108.628L71.1499 111.79L61.8825 104.345L61.6481 104.434L59.6621 116.154L51.398 119.294L55.0021 100.754L40.2315 89.1959L48.4078 86.0896Z" fill="url(#paint6_linear_90_577)"/>
<path d="M82.9307 107.314L71.5299 77.3052L83.9261 72.5956C86.1729 71.742 88.2789 71.4449 90.2443 71.7043C92.2157 71.9503 93.9427 72.6858 95.4255 73.9111C96.9045 75.1265 98.0355 76.7649 98.8186 78.826C99.6054 80.8969 99.8396 82.8816 99.5212 84.7799C99.2089 86.6648 98.3789 88.3494 97.0314 89.8339C95.6838 91.3184 93.8623 92.4967 91.5667 93.3688L83.9179 96.2747L81.7469 90.5601L88.0476 88.1664C89.1416 87.7507 89.9826 87.2133 90.5705 86.5539C91.1682 85.8909 91.5276 85.1451 91.6488 84.3166C91.7663 83.4783 91.6506 82.6 91.3017 81.6818C90.9492 80.7538 90.4544 80.0251 89.8173 79.4959C89.1766 78.9568 88.4145 78.6427 87.531 78.5535C86.6476 78.4644 85.6637 78.6258 84.5794 79.0377L81.0041 80.396L90.1839 104.558L82.9307 107.314Z" fill="url(#paint7_linear_90_577)"/>
<path d="M105.7 64.3233L117.101 94.3322L109.848 97.0878L98.447 67.0789L105.7 64.3233Z" fill="url(#paint8_linear_90_577)"/>
<path d="M121.654 92.6023L110.253 62.5934L122.65 57.8839C124.896 57.0303 126.99 56.699 128.929 56.89C130.874 57.0675 132.577 57.7396 134.038 58.9063C135.494 60.0631 136.613 61.6672 137.392 63.7186C138.182 65.7993 138.4 67.74 138.044 69.5406C137.685 71.3315 136.815 72.9253 135.434 74.3218C134.05 75.7086 132.214 76.8362 129.928 77.7046L122.089 80.6829L119.918 74.9683L126.409 72.5022C127.503 72.0866 128.363 71.5979 128.988 71.0363C129.619 70.4612 130.014 69.8082 130.172 69.0774C130.327 68.3367 130.228 67.5024 129.875 66.5744C129.522 65.6464 129.041 64.9519 128.43 64.491C127.815 64.0204 127.079 63.7746 126.221 63.7539C125.36 63.7233 124.387 63.914 123.303 64.326L119.728 65.6843L128.907 89.8467L121.654 92.6023ZM133.338 72.4687L146.022 83.3446L138.109 86.3507L125.572 75.4192L133.338 72.4687Z" fill="url(#paint9_linear_90_577)"/>
<path d="M148.974 82.2229L137.574 52.214L158.498 44.2646L160.736 50.155L147.065 55.3489L149.403 61.503L162.004 56.7156L164.247 62.6206L151.646 67.4081L153.99 73.5769L167.661 68.3831L169.899 74.2735L148.974 82.2229Z" fill="url(#paint10_linear_90_577)"/>
<path d="M185.533 68.3337L174.441 72.5477L163.04 42.5389L174.118 38.3304C177.175 37.1687 180.036 36.7693 182.7 37.1321C185.37 37.4814 187.733 38.5512 189.788 40.3415C191.839 42.122 193.457 44.5703 194.641 47.6865C195.829 50.8124 196.248 53.727 195.9 56.4302C195.562 59.1298 194.513 61.5015 192.752 63.5455C190.987 65.5797 188.581 67.1758 185.533 68.3337ZM179.345 63.6087L182.905 62.256C184.586 61.6176 185.899 60.7944 186.847 59.7862C187.8 58.7645 188.329 57.4957 188.435 55.9799C188.547 54.4506 188.193 52.6065 187.373 50.4476C186.553 48.2888 185.597 46.6846 184.505 45.635C183.41 44.5757 182.163 43.9872 180.766 43.8697C179.375 43.7387 177.82 43.9998 176.1 44.653L172.642 45.9668L179.345 63.6087Z" fill="url(#paint11_linear_90_577)"/>
</g>
<defs>
<linearGradient id="paint0_linear_90_577" x1="-39.7281" y1="40.874" x2="187.18" y2="65.704" gradientUnits="userSpaceOnUse">
<stop/>
<stop offset="1" stop-color="#368DD1"/>
</linearGradient>
<linearGradient id="paint1_linear_90_577" x1="-39.7281" y1="40.874" x2="187.18" y2="65.704" gradientUnits="userSpaceOnUse">
<stop/>
<stop offset="1" stop-color="#368DD1"/>
</linearGradient>
<linearGradient id="paint2_linear_90_577" x1="-39.7281" y1="40.874" x2="187.18" y2="65.704" gradientUnits="userSpaceOnUse">
<stop/>
<stop offset="1" stop-color="#368DD1"/>
</linearGradient>
<linearGradient id="paint3_linear_90_577" x1="-39.7281" y1="40.874" x2="187.18" y2="65.704" gradientUnits="userSpaceOnUse">
<stop/>
<stop offset="1" stop-color="#368DD1"/>
</linearGradient>
<linearGradient id="paint4_linear_90_577" x1="-39.7281" y1="40.874" x2="187.18" y2="65.704" gradientUnits="userSpaceOnUse">
<stop/>
<stop offset="1" stop-color="#368DD1"/>
</linearGradient>
<linearGradient id="paint5_linear_90_577" x1="-39.7281" y1="40.874" x2="187.18" y2="65.704" gradientUnits="userSpaceOnUse">
<stop/>
<stop offset="1" stop-color="#368DD1"/>
</linearGradient>
<linearGradient id="paint6_linear_90_577" x1="-39.7281" y1="40.874" x2="187.18" y2="65.704" gradientUnits="userSpaceOnUse">
<stop/>
<stop offset="1" stop-color="#368DD1"/>
</linearGradient>
<linearGradient id="paint7_linear_90_577" x1="-39.7281" y1="40.874" x2="187.18" y2="65.704" gradientUnits="userSpaceOnUse">
<stop/>
<stop offset="1" stop-color="#368DD1"/>
</linearGradient>
<linearGradient id="paint8_linear_90_577" x1="-39.7281" y1="40.874" x2="187.18" y2="65.704" gradientUnits="userSpaceOnUse">
<stop/>
<stop offset="1" stop-color="#368DD1"/>
</linearGradient>
<linearGradient id="paint9_linear_90_577" x1="-39.7281" y1="40.874" x2="187.18" y2="65.704" gradientUnits="userSpaceOnUse">
<stop/>
<stop offset="1" stop-color="#368DD1"/>
</linearGradient>
<linearGradient id="paint10_linear_90_577" x1="-39.7281" y1="40.874" x2="187.18" y2="65.704" gradientUnits="userSpaceOnUse">
<stop/>
<stop offset="1" stop-color="#368DD1"/>
</linearGradient>
<linearGradient id="paint11_linear_90_577" x1="-39.7281" y1="40.874" x2="187.18" y2="65.704" gradientUnits="userSpaceOnUse">
<stop/>
<stop offset="1" stop-color="#368DD1"/>
</linearGradient>
<clipPath id="clip0_90_577">
<rect width="382" height="382" fill="white"/>
</clipPath>
</defs>
</svg>
